%
M48
M72
T01C0.0280
T02C0.0433
T03C0.0394
T04C0.0354
T05C0.0320
T06C0.0400
T07C0.0350
T08C0.1250
T09C0.0420
T10C0.0236
T11C0.0276
%
T01
X1214Y836
X1214Y936
X1227Y712
X1227Y612
X1798Y508
X1798Y408
T02
X593Y1755
X494Y1753
T03
X939Y1952
X1588Y1952
X1652Y1951
X1006Y875
X1006Y775
X1006Y675
X939Y476
X939Y412
X1588Y476
X1656Y408
T04
X1824Y1158
X1827Y1262
X1827Y1346
X1859Y1491
X1828Y1543
X1782Y1588
X1769Y1515
X347Y1755
X247Y1755
T05
X976Y1653
X1076Y1653
X1176Y1653
X1145Y1786
X1245Y1786
X1345Y1786
X1445Y1786
X1476Y1653
X1376Y1653
X1576Y1653
X1676Y1653
T06
X197Y255
X297Y255
X397Y255
X497Y255
X931Y255
X1031Y255
X1131Y255
X1231Y255
X1447Y255
X1547Y255
X1647Y255
X1747Y255
X1747Y705
X1747Y805
X1797Y1755
X1797Y1955
X497Y1955
X397Y1955
X297Y1955
X197Y1955
T07
X659Y1961
X754Y1567
X1078Y1514
X674Y1074
X759Y910
X840Y738
X913Y597
X648Y413
X606Y246
X1054Y1029
X1156Y1045
X1226Y1044
X1467Y865
X1534Y865
X1812Y615
X1402Y366
X1780Y1426
T08
X404Y1545
X404Y1095
X398Y882
X398Y432
T09
X648Y532
X648Y632
X648Y732
X648Y832
X748Y782
X748Y682
X748Y582
X748Y482
X754Y1145
X754Y1245
X754Y1345
X754Y1445
X654Y1395
X654Y1495
X654Y1295
X654Y1195
T10
X1069Y1288
X1110Y1262
X1063Y1387
X1363Y1384
X1545Y1285
X1564Y1182
X739Y304
T11
X906Y1237
X1645Y881
X1826Y965
X1649Y1229
X1708Y1307
X1672Y580
M30
