G75*
G70*
%OFA0B0*%
%FSLAX24Y24*%
%IPPOS*%
%LPD*%
%AMOC8*
5,1,8,0,0,1.08239X$1,22.5*
%
%ADD10C,0.0160*%
%ADD11OC8,0.0580*%
%ADD12C,0.0730*%
%ADD13O,0.1261X0.0671*%
%ADD14OC8,0.0710*%
%ADD15O,0.0560X0.1040*%
%ADD16R,0.0671X0.0671*%
%ADD17OC8,0.0680*%
%ADD18C,0.0605*%
%ADD19C,0.0000*%
%ADD20C,0.1330*%
%ADD21C,0.0710*%
%ADD22R,0.0474X0.0513*%
%ADD23O,0.0680X0.1280*%
%ADD24O,0.1280X0.0680*%
%ADD25R,0.0946X0.0316*%
%ADD26C,0.0611*%
%ADD27C,0.0476*%
%ADD28C,0.0516*%
%ADD29OC8,0.0516*%
D10*
X001048Y001060D02*
X001040Y020761D01*
X019162Y020761D01*
X019170Y001064D01*
X001048Y001064D01*
D11*
X012137Y008356D03*
X012137Y009356D03*
X012269Y007123D03*
X012269Y006123D03*
X017981Y005084D03*
X017981Y004084D03*
D12*
X005930Y017549D03*
X004942Y017529D03*
D13*
X010060Y008753D03*
X010060Y007753D03*
X010060Y006753D03*
D14*
X003466Y017549D03*
X002466Y017549D03*
D15*
X009761Y016529D03*
X010761Y016529D03*
X011761Y016529D03*
X011454Y017856D03*
X012454Y017856D03*
X013454Y017856D03*
X014454Y017856D03*
X014761Y016529D03*
X015761Y016529D03*
X016761Y016529D03*
X013761Y016529D03*
D16*
X015883Y019521D03*
X016521Y019509D03*
X009387Y019521D03*
X009387Y004757D03*
X009395Y004116D03*
X015883Y004757D03*
X016564Y004080D03*
D17*
X017969Y017551D03*
X017969Y019549D03*
D18*
X017796Y014257D03*
X015340Y008647D03*
X014666Y008655D03*
X012261Y010438D03*
X011564Y010450D03*
X010544Y010293D03*
X008403Y007379D03*
X009135Y005974D03*
X006481Y004127D03*
X006064Y002464D03*
X007591Y009096D03*
X006741Y010738D03*
X010784Y015135D03*
X007536Y015675D03*
X006588Y019612D03*
X018119Y006155D03*
X014021Y003663D03*
D19*
X003356Y004320D02*
X003359Y004377D01*
X003366Y004433D01*
X003379Y004489D01*
X003397Y004543D01*
X003420Y004595D01*
X003447Y004645D01*
X003479Y004692D01*
X003515Y004736D01*
X003554Y004777D01*
X003598Y004814D01*
X003644Y004846D01*
X003693Y004875D01*
X003745Y004899D01*
X003799Y004918D01*
X003854Y004932D01*
X003910Y004941D01*
X003967Y004945D01*
X004024Y004944D01*
X004080Y004937D01*
X004136Y004926D01*
X004190Y004909D01*
X004243Y004887D01*
X004293Y004861D01*
X004341Y004831D01*
X004386Y004796D01*
X004428Y004757D01*
X004466Y004714D01*
X004500Y004669D01*
X004529Y004620D01*
X004554Y004569D01*
X004575Y004516D01*
X004590Y004461D01*
X004600Y004405D01*
X004605Y004348D01*
X004605Y004292D01*
X004600Y004235D01*
X004590Y004179D01*
X004575Y004124D01*
X004554Y004071D01*
X004529Y004020D01*
X004500Y003971D01*
X004466Y003926D01*
X004428Y003883D01*
X004386Y003844D01*
X004341Y003809D01*
X004294Y003779D01*
X004243Y003753D01*
X004190Y003731D01*
X004136Y003714D01*
X004080Y003703D01*
X004024Y003696D01*
X003967Y003695D01*
X003910Y003699D01*
X003854Y003708D01*
X003799Y003722D01*
X003745Y003741D01*
X003693Y003765D01*
X003644Y003794D01*
X003598Y003826D01*
X003554Y003863D01*
X003515Y003904D01*
X003479Y003948D01*
X003447Y003995D01*
X003420Y004045D01*
X003397Y004097D01*
X003379Y004151D01*
X003366Y004207D01*
X003359Y004263D01*
X003356Y004320D01*
X003356Y008820D02*
X003359Y008877D01*
X003366Y008933D01*
X003379Y008989D01*
X003397Y009043D01*
X003420Y009095D01*
X003447Y009145D01*
X003479Y009192D01*
X003515Y009236D01*
X003554Y009277D01*
X003598Y009314D01*
X003644Y009346D01*
X003693Y009375D01*
X003745Y009399D01*
X003799Y009418D01*
X003854Y009432D01*
X003910Y009441D01*
X003967Y009445D01*
X004024Y009444D01*
X004080Y009437D01*
X004136Y009426D01*
X004190Y009409D01*
X004243Y009387D01*
X004293Y009361D01*
X004341Y009331D01*
X004386Y009296D01*
X004428Y009257D01*
X004466Y009214D01*
X004500Y009169D01*
X004529Y009120D01*
X004554Y009069D01*
X004575Y009016D01*
X004590Y008961D01*
X004600Y008905D01*
X004605Y008848D01*
X004605Y008792D01*
X004600Y008735D01*
X004590Y008679D01*
X004575Y008624D01*
X004554Y008571D01*
X004529Y008520D01*
X004500Y008471D01*
X004466Y008426D01*
X004428Y008383D01*
X004386Y008344D01*
X004341Y008309D01*
X004294Y008279D01*
X004243Y008253D01*
X004190Y008231D01*
X004136Y008214D01*
X004080Y008203D01*
X004024Y008196D01*
X003967Y008195D01*
X003910Y008199D01*
X003854Y008208D01*
X003799Y008222D01*
X003745Y008241D01*
X003693Y008265D01*
X003644Y008294D01*
X003598Y008326D01*
X003554Y008363D01*
X003515Y008404D01*
X003479Y008448D01*
X003447Y008495D01*
X003420Y008545D01*
X003397Y008597D01*
X003379Y008651D01*
X003366Y008707D01*
X003359Y008763D01*
X003356Y008820D01*
X003419Y010950D02*
X003422Y011007D01*
X003429Y011063D01*
X003442Y011119D01*
X003460Y011173D01*
X003483Y011225D01*
X003510Y011275D01*
X003542Y011322D01*
X003578Y011366D01*
X003617Y011407D01*
X003661Y011444D01*
X003707Y011476D01*
X003756Y011505D01*
X003808Y011529D01*
X003862Y011548D01*
X003917Y011562D01*
X003973Y011571D01*
X004030Y011575D01*
X004087Y011574D01*
X004143Y011567D01*
X004199Y011556D01*
X004253Y011539D01*
X004306Y011517D01*
X004356Y011491D01*
X004404Y011461D01*
X004449Y011426D01*
X004491Y011387D01*
X004529Y011344D01*
X004563Y011299D01*
X004592Y011250D01*
X004617Y011199D01*
X004638Y011146D01*
X004653Y011091D01*
X004663Y011035D01*
X004668Y010978D01*
X004668Y010922D01*
X004663Y010865D01*
X004653Y010809D01*
X004638Y010754D01*
X004617Y010701D01*
X004592Y010650D01*
X004563Y010601D01*
X004529Y010556D01*
X004491Y010513D01*
X004449Y010474D01*
X004404Y010439D01*
X004357Y010409D01*
X004306Y010383D01*
X004253Y010361D01*
X004199Y010344D01*
X004143Y010333D01*
X004087Y010326D01*
X004030Y010325D01*
X003973Y010329D01*
X003917Y010338D01*
X003862Y010352D01*
X003808Y010371D01*
X003756Y010395D01*
X003707Y010424D01*
X003661Y010456D01*
X003617Y010493D01*
X003578Y010534D01*
X003542Y010578D01*
X003510Y010625D01*
X003483Y010675D01*
X003460Y010727D01*
X003442Y010781D01*
X003429Y010837D01*
X003422Y010893D01*
X003419Y010950D01*
X003419Y015450D02*
X003422Y015507D01*
X003429Y015563D01*
X003442Y015619D01*
X003460Y015673D01*
X003483Y015725D01*
X003510Y015775D01*
X003542Y015822D01*
X003578Y015866D01*
X003617Y015907D01*
X003661Y015944D01*
X003707Y015976D01*
X003756Y016005D01*
X003808Y016029D01*
X003862Y016048D01*
X003917Y016062D01*
X003973Y016071D01*
X004030Y016075D01*
X004087Y016074D01*
X004143Y016067D01*
X004199Y016056D01*
X004253Y016039D01*
X004306Y016017D01*
X004356Y015991D01*
X004404Y015961D01*
X004449Y015926D01*
X004491Y015887D01*
X004529Y015844D01*
X004563Y015799D01*
X004592Y015750D01*
X004617Y015699D01*
X004638Y015646D01*
X004653Y015591D01*
X004663Y015535D01*
X004668Y015478D01*
X004668Y015422D01*
X004663Y015365D01*
X004653Y015309D01*
X004638Y015254D01*
X004617Y015201D01*
X004592Y015150D01*
X004563Y015101D01*
X004529Y015056D01*
X004491Y015013D01*
X004449Y014974D01*
X004404Y014939D01*
X004357Y014909D01*
X004306Y014883D01*
X004253Y014861D01*
X004199Y014844D01*
X004143Y014833D01*
X004087Y014826D01*
X004030Y014825D01*
X003973Y014829D01*
X003917Y014838D01*
X003862Y014852D01*
X003808Y014871D01*
X003756Y014895D01*
X003707Y014924D01*
X003661Y014956D01*
X003617Y014993D01*
X003578Y015034D01*
X003542Y015078D01*
X003510Y015125D01*
X003483Y015175D01*
X003460Y015227D01*
X003442Y015281D01*
X003429Y015337D01*
X003422Y015393D01*
X003419Y015450D01*
D20*
X004044Y015450D03*
X004044Y010950D03*
X003981Y008820D03*
X003981Y004320D03*
D21*
X006481Y005320D03*
X006481Y006320D03*
X006481Y007320D03*
X006481Y008320D03*
X007481Y007820D03*
X007481Y006820D03*
X007481Y005820D03*
X007481Y004820D03*
X007544Y011450D03*
X007544Y012450D03*
X007544Y013450D03*
X007544Y014450D03*
X006544Y013950D03*
X006544Y014950D03*
X006544Y012950D03*
X006544Y011950D03*
D22*
X006867Y018746D03*
X006198Y018746D03*
X013442Y002919D03*
X013442Y002249D03*
D23*
X014469Y002549D03*
X015469Y002549D03*
X016469Y002549D03*
X017469Y002549D03*
X012312Y002549D03*
X011312Y002549D03*
X010312Y002549D03*
X009312Y002549D03*
X004971Y002551D03*
X003971Y002551D03*
X002971Y002551D03*
X001971Y002551D03*
X001966Y019547D03*
X002966Y019547D03*
X003966Y019547D03*
X004966Y019547D03*
D24*
X017469Y008049D03*
X017469Y007049D03*
D25*
X013832Y011755D03*
X013832Y012255D03*
X013832Y012755D03*
X013832Y013255D03*
X011784Y013255D03*
X011784Y012755D03*
X011784Y012255D03*
X011784Y011755D03*
D26*
X017694Y015151D03*
X018280Y015431D03*
X018588Y014907D03*
X017824Y015879D03*
X018269Y013458D03*
X018269Y012616D03*
X018241Y011584D03*
D27*
X015639Y011820D03*
X015454Y012848D03*
X013635Y013836D03*
X011103Y012616D03*
X010694Y012883D03*
X010631Y013868D03*
X007387Y003045D03*
D28*
X009056Y012368D03*
X016454Y008809D03*
X016721Y005801D03*
D29*
X018257Y009655D03*
X016485Y012293D03*
X017084Y013072D03*
M02*
