G75*
G70*
%OFA0B0*%
%FSLAX24Y24*%
%IPPOS*%
%LPD*%
%AMOC8*
5,1,8,0,0,1.08239X$1,22.5*
%
%ADD10C,0.0160*%
%ADD11R,0.0236X0.0866*%
%ADD12OC8,0.0500*%
%ADD13C,0.0650*%
%ADD14O,0.1181X0.0591*%
%ADD15R,0.0394X0.0433*%
%ADD16R,0.1063X0.0850*%
%ADD17OC8,0.0630*%
%ADD18O,0.0480X0.0960*%
%ADD19R,0.0591X0.0591*%
%ADD20OC8,0.0600*%
%ADD21C,0.0525*%
%ADD22C,0.0000*%
%ADD23C,0.0630*%
%ADD24R,0.1181X0.0315*%
%ADD25R,0.0433X0.0394*%
%ADD26O,0.0600X0.1200*%
%ADD27O,0.1200X0.0600*%
%ADD28C,0.0080*%
%ADD29C,0.0531*%
%ADD30C,0.0396*%
%ADD31C,0.0120*%
%ADD32C,0.0436*%
%ADD33C,0.0320*%
%ADD34C,0.0400*%
%ADD35OC8,0.0436*%
%ADD36C,0.0100*%
D10*
X001411Y001064D02*
X019533Y001064D01*
X019533Y001060D02*
X019540Y020761D01*
X001418Y020761D01*
X001411Y001064D01*
X001651Y001304D02*
X015103Y001304D01*
X015096Y003265D01*
X012599Y003533D01*
X011733Y005013D01*
X011655Y005265D01*
X011332Y005269D01*
X010599Y005277D01*
X009257Y004958D01*
X007678Y004966D01*
X006442Y005535D01*
X006442Y005193D01*
X006337Y005087D01*
X005951Y005087D01*
X005894Y005145D01*
X005883Y005133D01*
X005884Y005074D01*
X006542Y004105D01*
X006648Y004105D01*
X006811Y004038D01*
X006935Y003913D01*
X007003Y003751D01*
X007003Y003575D01*
X006935Y003412D01*
X006811Y003288D01*
X006844Y003288D01*
X006811Y003288D02*
X006648Y003220D01*
X006472Y003220D01*
X006380Y003258D01*
X006591Y003047D01*
X006591Y002569D01*
X006132Y002569D01*
X006132Y002529D01*
X006591Y002529D01*
X006591Y002050D01*
X006310Y001769D01*
X006131Y001769D01*
X006131Y002528D01*
X006091Y002528D01*
X006091Y001769D01*
X005913Y001769D01*
X005631Y002050D01*
X005631Y002529D01*
X006091Y002529D01*
X006091Y002569D01*
X006131Y002569D01*
X006131Y003329D01*
X006269Y003329D01*
X006185Y003412D01*
X006118Y003575D01*
X006118Y003751D01*
X006159Y003851D01*
X005477Y004854D01*
X005426Y004905D01*
X005426Y004929D01*
X005425Y004931D01*
X005425Y005001D01*
X005423Y005116D01*
X005394Y005145D01*
X005337Y005087D01*
X005173Y005087D01*
X005173Y004387D01*
X005068Y004282D01*
X004472Y004282D01*
X004472Y003719D01*
X004378Y003625D01*
X003655Y003625D01*
X003562Y003719D01*
X003562Y004442D01*
X003655Y004535D01*
X004223Y004535D01*
X004223Y005127D01*
X004328Y005233D01*
X004346Y005233D01*
X004346Y005476D01*
X004101Y005508D01*
X004073Y005480D01*
X003935Y005423D01*
X003784Y005423D01*
X003645Y005480D01*
X003539Y005587D01*
X003482Y005725D01*
X003482Y005876D01*
X003539Y006015D01*
X003645Y006121D01*
X003784Y006178D01*
X003935Y006178D01*
X004073Y006121D01*
X004171Y006023D01*
X004346Y006001D01*
X004346Y006208D01*
X004451Y006314D01*
X004837Y006314D01*
X004894Y006256D01*
X004951Y006314D01*
X005144Y006314D01*
X005144Y005701D01*
X005144Y005701D01*
X005144Y006314D01*
X005337Y006314D01*
X005394Y006256D01*
X005433Y006296D01*
X003700Y006658D01*
X003610Y006569D01*
X002619Y006569D01*
X002712Y006530D01*
X002837Y006406D01*
X002904Y006243D01*
X002904Y006067D01*
X002837Y005904D01*
X002712Y005780D01*
X002550Y005712D01*
X002374Y005712D01*
X002211Y005780D01*
X002087Y005904D01*
X002019Y006067D01*
X002019Y006243D01*
X002087Y006406D01*
X002211Y006530D01*
X002374Y006597D01*
X002550Y006597D01*
X002608Y006573D01*
X002331Y006850D01*
X002331Y006995D01*
X002044Y007076D01*
X001972Y007076D01*
X001820Y007228D01*
X001820Y007338D01*
X001820Y007339D01*
X001820Y007444D01*
X001822Y007445D01*
X001840Y008525D01*
X001840Y008551D01*
X001840Y008553D01*
X001841Y008635D01*
X001860Y008653D01*
X002014Y009430D01*
X001946Y009498D01*
X001946Y009811D01*
X002167Y010033D01*
X002480Y010033D01*
X002702Y009811D01*
X002702Y009498D01*
X002522Y009319D01*
X002359Y008497D01*
X002355Y008271D01*
X002613Y008529D01*
X003334Y008529D01*
X003749Y008847D01*
X003749Y008884D01*
X003807Y009022D01*
X003913Y009129D01*
X004052Y009186D01*
X004202Y009186D01*
X004341Y009129D01*
X004447Y009022D01*
X004505Y008884D01*
X004505Y008733D01*
X004447Y008594D01*
X004341Y008488D01*
X004202Y008431D01*
X004061Y008431D01*
X003861Y008278D01*
X003891Y008247D01*
X003891Y007850D01*
X003610Y007569D01*
X002613Y007569D01*
X002348Y007833D01*
X002343Y007532D01*
X002556Y007472D01*
X002613Y007529D01*
X003610Y007529D01*
X003891Y007247D01*
X003891Y007149D01*
X005784Y006754D01*
X005820Y006754D01*
X005845Y006741D01*
X005886Y006732D01*
X005912Y006706D01*
X005954Y006684D01*
X005960Y007135D01*
X005951Y007135D01*
X005894Y007192D01*
X005837Y007135D01*
X005451Y007135D01*
X005394Y007192D01*
X005337Y007135D01*
X004951Y007135D01*
X004894Y007192D01*
X004837Y007135D01*
X004644Y007135D01*
X004451Y007135D01*
X004346Y007240D01*
X004346Y007748D01*
X004346Y008255D01*
X004451Y008361D01*
X004644Y008361D01*
X004644Y007748D01*
X004644Y007748D01*
X004644Y008361D01*
X004837Y008361D01*
X004894Y008303D01*
X004927Y008336D01*
X004866Y008396D01*
X004799Y008559D01*
X004799Y008735D01*
X004866Y008898D01*
X004991Y009022D01*
X005153Y009090D01*
X005329Y009090D01*
X005492Y009022D01*
X005574Y008940D01*
X005664Y009030D01*
X005826Y009097D01*
X005985Y009097D01*
X005993Y009761D01*
X006489Y010639D01*
X006501Y010923D01*
X006485Y010906D01*
X005820Y010906D01*
X005155Y010906D01*
X005049Y011011D01*
X005049Y011243D01*
X005820Y011243D01*
X005820Y010906D01*
X005820Y011243D01*
X005820Y011243D01*
X005820Y011244D01*
X005820Y011581D01*
X005209Y011581D01*
X005246Y011617D01*
X005300Y011749D01*
X005300Y011892D01*
X005291Y011914D01*
X006493Y011914D01*
X006547Y011968D01*
X006528Y011538D01*
X006485Y011581D01*
X005820Y011581D01*
X005820Y011244D01*
X005820Y011244D01*
X005049Y011244D01*
X005049Y011476D01*
X005052Y011478D01*
X005013Y011462D01*
X004871Y011462D01*
X004739Y011517D01*
X004638Y011617D01*
X004584Y011749D01*
X004584Y011892D01*
X004637Y012020D01*
X004363Y012026D01*
X004252Y011915D01*
X003939Y011915D01*
X003718Y012136D01*
X003718Y012449D01*
X003939Y012671D01*
X004252Y012671D01*
X004376Y012546D01*
X004953Y012532D01*
X004924Y012544D01*
X004824Y012645D01*
X004769Y012777D01*
X004769Y012919D01*
X004790Y012970D01*
X003808Y012849D01*
X003654Y012694D01*
X003341Y012694D01*
X003119Y012916D01*
X003119Y013229D01*
X003341Y013450D01*
X003654Y013450D01*
X003740Y013364D01*
X004829Y013498D01*
X004842Y013511D01*
X004933Y013511D01*
X004934Y013511D01*
X005004Y013511D01*
X005077Y013511D01*
X005155Y013589D01*
X006485Y013589D01*
X006591Y013483D01*
X006591Y013019D01*
X006485Y012914D01*
X005485Y012914D01*
X005485Y012777D01*
X005431Y012645D01*
X005374Y012589D01*
X006493Y012589D01*
X006570Y012512D01*
X006690Y015297D01*
X006851Y015869D01*
X006646Y015869D01*
X006400Y016115D01*
X006400Y016943D01*
X006646Y017189D01*
X006994Y017189D01*
X007016Y017167D01*
X007054Y017196D01*
X006953Y017196D01*
X006707Y017442D01*
X006707Y017856D01*
X006707Y018208D01*
X006547Y018215D01*
X006547Y017442D01*
X006301Y017196D01*
X005953Y017196D01*
X005707Y017442D01*
X005707Y018161D01*
X005659Y018139D01*
X004039Y017144D01*
X004240Y016943D01*
X004240Y016115D01*
X003994Y015869D01*
X003646Y015869D01*
X003400Y016115D01*
X003400Y016739D01*
X002792Y016123D01*
X001656Y015596D01*
X001651Y001304D01*
X001651Y001385D02*
X015102Y001385D01*
X015102Y001544D02*
X001651Y001544D01*
X001651Y001703D02*
X015101Y001703D01*
X015101Y001861D02*
X011560Y001861D01*
X011468Y001769D02*
X011749Y002050D01*
X011749Y003047D01*
X011468Y003329D01*
X011070Y003329D01*
X010789Y003047D01*
X010789Y002050D01*
X011070Y001769D01*
X011468Y001769D01*
X011719Y002020D02*
X015100Y002020D01*
X015099Y002178D02*
X014857Y002178D01*
X014892Y002213D02*
X014767Y002089D01*
X014605Y002021D01*
X014524Y002021D01*
X014524Y002456D01*
X014509Y002456D01*
X014509Y002021D01*
X014429Y002021D01*
X014266Y002089D01*
X014142Y002213D01*
X014074Y002376D01*
X014074Y002456D01*
X014509Y002456D01*
X014509Y002471D01*
X014074Y002471D01*
X014074Y002552D01*
X014142Y002715D01*
X014266Y002839D01*
X014429Y002906D01*
X014509Y002906D01*
X014509Y002472D01*
X014524Y002472D01*
X014524Y002906D01*
X014605Y002906D01*
X014767Y002839D01*
X014892Y002715D01*
X014959Y002552D01*
X014959Y002471D01*
X014525Y002471D01*
X014525Y002456D01*
X014959Y002456D01*
X014959Y002376D01*
X014892Y002213D01*
X014943Y002337D02*
X015099Y002337D01*
X015098Y002495D02*
X014959Y002495D01*
X014917Y002654D02*
X015098Y002654D01*
X015097Y002812D02*
X014794Y002812D01*
X014524Y002812D02*
X014509Y002812D01*
X014524Y002654D02*
X014509Y002654D01*
X014524Y002495D02*
X014509Y002495D01*
X014524Y002337D02*
X014509Y002337D01*
X014524Y002178D02*
X014509Y002178D01*
X014177Y002178D02*
X013075Y002178D01*
X013075Y002173D02*
X012969Y002068D01*
X012697Y002068D01*
X012697Y002426D01*
X013075Y002426D01*
X013075Y002173D01*
X013075Y002337D02*
X014091Y002337D01*
X014074Y002495D02*
X013075Y002495D01*
X013075Y002463D02*
X012697Y002463D01*
X012697Y002426D01*
X012660Y002426D01*
X012660Y002068D01*
X012387Y002068D01*
X012282Y002173D01*
X012282Y002426D01*
X012660Y002426D01*
X012660Y002463D01*
X012282Y002463D01*
X012282Y002716D01*
X012345Y002779D01*
X012282Y002842D01*
X012282Y003385D01*
X012387Y003490D01*
X012969Y003490D01*
X013075Y003385D01*
X013075Y003383D01*
X013123Y003403D01*
X013265Y003403D01*
X013397Y003348D01*
X013498Y003248D01*
X013552Y003116D01*
X013552Y002973D01*
X013498Y002842D01*
X013397Y002741D01*
X013265Y002687D01*
X013123Y002687D01*
X013075Y002707D01*
X013075Y002463D01*
X013075Y002654D02*
X014116Y002654D01*
X014239Y002812D02*
X013468Y002812D01*
X013551Y002971D02*
X015097Y002971D01*
X015096Y003129D02*
X013546Y003129D01*
X013457Y003288D02*
X014883Y003288D01*
X014119Y004104D02*
X013099Y004820D01*
X012770Y005190D02*
X012630Y005190D01*
X012680Y005101D02*
X012819Y005240D01*
X013001Y005315D01*
X013198Y005315D01*
X013380Y005240D01*
X013519Y005101D01*
X013594Y004919D01*
X013594Y004790D01*
X013946Y004543D01*
X014011Y004570D01*
X014188Y004570D01*
X014350Y004503D01*
X014475Y004378D01*
X014508Y004297D01*
X014733Y004277D01*
X015815Y004303D01*
X015815Y004476D01*
X015934Y004765D01*
X016155Y004986D01*
X016443Y005105D01*
X016756Y005105D01*
X017044Y004986D01*
X017265Y004765D01*
X017384Y004476D01*
X017384Y004340D01*
X019029Y004379D01*
X019005Y018186D01*
X015064Y018135D01*
X014295Y019288D01*
X014244Y019236D01*
X014081Y019169D01*
X014001Y019169D01*
X014001Y019604D01*
X013986Y019604D01*
X013986Y019169D01*
X013905Y019169D01*
X013894Y019174D01*
X013894Y018884D01*
X013262Y018884D01*
X013262Y018725D01*
X013894Y018725D01*
X013894Y018305D01*
X013788Y018199D01*
X013262Y018199D01*
X013262Y018724D01*
X013102Y018724D01*
X013102Y018199D01*
X012576Y018199D01*
X012471Y018305D01*
X012471Y018725D01*
X013102Y018725D01*
X013102Y018884D01*
X012471Y018884D01*
X012471Y019304D01*
X012576Y019410D01*
X013102Y019410D01*
X013102Y018885D01*
X013262Y018885D01*
X013262Y019410D01*
X013598Y019410D01*
X013551Y019524D01*
X013551Y019604D01*
X013985Y019604D01*
X013985Y019619D01*
X013551Y019619D01*
X013551Y019700D01*
X013618Y019862D01*
X013743Y019987D01*
X013811Y020015D01*
X013749Y020108D01*
X010540Y020120D01*
X010316Y019421D01*
X010414Y019421D01*
X010588Y019248D01*
X010588Y019248D01*
X010637Y019198D01*
X010637Y019104D01*
X011239Y017360D01*
X011239Y017139D01*
X011141Y017041D01*
X011240Y016943D01*
X011240Y016115D01*
X010994Y015869D01*
X010646Y015869D01*
X010400Y016115D01*
X010400Y016943D01*
X010538Y017081D01*
X010529Y017090D01*
X009987Y018658D01*
X008845Y018644D01*
X008547Y018061D01*
X008547Y017442D01*
X008542Y017437D01*
X008648Y017189D01*
X008994Y017189D01*
X009240Y016943D01*
X009240Y016115D01*
X009147Y016022D01*
X009198Y015903D01*
X011387Y015651D01*
X011414Y013581D01*
X012594Y013676D01*
X012617Y013731D01*
X012756Y013870D01*
X012938Y013945D01*
X013135Y013945D01*
X013317Y013870D01*
X013456Y013731D01*
X013531Y013549D01*
X013531Y013352D01*
X013456Y013170D01*
X013317Y013031D01*
X013135Y012955D01*
X012938Y012955D01*
X012756Y013031D01*
X012630Y013157D01*
X011415Y013059D01*
X011409Y012729D01*
X011450Y012745D01*
X011600Y012745D01*
X011739Y012688D01*
X011845Y012582D01*
X011902Y012443D01*
X011902Y012292D01*
X011845Y012154D01*
X011739Y012047D01*
X011600Y011990D01*
X011450Y011990D01*
X011397Y012011D01*
X011375Y010883D01*
X011115Y009126D01*
X011291Y008950D01*
X011291Y008557D01*
X011013Y008278D01*
X010029Y008278D01*
X009893Y008414D01*
X009493Y008415D01*
X009496Y007323D01*
X009572Y007323D01*
X009677Y007218D01*
X009677Y007085D01*
X009886Y007086D01*
X010029Y007229D01*
X011013Y007229D01*
X011150Y007092D01*
X011174Y007092D01*
X011836Y006781D01*
X012470Y005675D01*
X012669Y005074D01*
X012680Y005101D01*
X012577Y005349D02*
X012944Y005349D01*
X013001Y005325D02*
X012819Y005401D01*
X012680Y005540D01*
X012605Y005722D01*
X012605Y005795D01*
X013074Y005795D01*
X013074Y005845D01*
X012605Y005845D01*
X012605Y005919D01*
X012680Y006101D01*
X012819Y006240D01*
X013001Y006315D01*
X013074Y006315D01*
X013074Y005846D01*
X013125Y005846D01*
X013125Y006315D01*
X013198Y006315D01*
X013380Y006240D01*
X013519Y006101D01*
X013594Y005919D01*
X013594Y005845D01*
X013125Y005845D01*
X013125Y005795D01*
X013594Y005795D01*
X013594Y005722D01*
X013519Y005540D01*
X013380Y005401D01*
X013198Y005325D01*
X013125Y005325D01*
X013125Y005795D01*
X013074Y005795D01*
X013074Y005325D01*
X013001Y005325D01*
X013074Y005349D02*
X013125Y005349D01*
X013255Y005349D02*
X013605Y005349D01*
X013605Y005345D02*
X013605Y005419D01*
X013680Y005601D01*
X013819Y005740D01*
X014001Y005815D01*
X014074Y005815D01*
X014074Y005346D01*
X014125Y005346D01*
X014125Y005815D01*
X014198Y005815D01*
X014380Y005740D01*
X014519Y005601D01*
X014594Y005419D01*
X014594Y005345D01*
X014125Y005345D01*
X014125Y005295D01*
X014594Y005295D01*
X014594Y005222D01*
X014519Y005040D01*
X014380Y004901D01*
X014198Y004825D01*
X014125Y004825D01*
X014125Y005295D01*
X014074Y005295D01*
X014074Y005345D01*
X013605Y005345D01*
X013605Y005295D02*
X014074Y005295D01*
X014074Y004825D01*
X014001Y004825D01*
X013819Y004901D01*
X013680Y005040D01*
X013605Y005222D01*
X013605Y005295D01*
X013618Y005190D02*
X013429Y005190D01*
X013548Y005032D02*
X013688Y005032D01*
X013594Y004873D02*
X013885Y004873D01*
X014074Y004873D02*
X014125Y004873D01*
X014125Y005032D02*
X014074Y005032D01*
X014074Y005190D02*
X014125Y005190D01*
X014125Y005349D02*
X014074Y005349D01*
X014074Y005508D02*
X014125Y005508D01*
X014125Y005666D02*
X014074Y005666D01*
X014001Y005825D02*
X013819Y005901D01*
X013680Y006040D01*
X013605Y006222D01*
X013605Y006419D01*
X013680Y006601D01*
X013819Y006740D01*
X014001Y006815D01*
X014198Y006815D01*
X014380Y006740D01*
X014519Y006601D01*
X014594Y006419D01*
X014594Y006222D01*
X014519Y006040D01*
X014380Y005901D01*
X014198Y005825D01*
X014001Y005825D01*
X013745Y005666D02*
X013571Y005666D01*
X013641Y005508D02*
X013487Y005508D01*
X013125Y005508D02*
X013074Y005508D01*
X013074Y005666D02*
X013125Y005666D01*
X013125Y005825D02*
X019026Y005825D01*
X019026Y005983D02*
X014462Y005983D01*
X014561Y006142D02*
X019026Y006142D01*
X019025Y006300D02*
X014594Y006300D01*
X014578Y006459D02*
X019025Y006459D01*
X019025Y006617D02*
X014502Y006617D01*
X014293Y006776D02*
X019025Y006776D01*
X019024Y006934D02*
X014414Y006934D01*
X014380Y006901D02*
X014519Y007040D01*
X014594Y007222D01*
X014594Y007419D01*
X014519Y007601D01*
X014380Y007740D01*
X014198Y007815D01*
X014001Y007815D01*
X013819Y007740D01*
X013680Y007601D01*
X013605Y007419D01*
X013605Y007222D01*
X013680Y007040D01*
X013819Y006901D01*
X014001Y006825D01*
X014198Y006825D01*
X014380Y006901D01*
X014541Y007093D02*
X019024Y007093D01*
X019024Y007252D02*
X014594Y007252D01*
X014594Y007410D02*
X019023Y007410D01*
X019023Y007569D02*
X014532Y007569D01*
X014393Y007727D02*
X019023Y007727D01*
X019023Y007886D02*
X014344Y007886D01*
X014380Y007901D02*
X014198Y007825D01*
X014001Y007825D01*
X013819Y007901D01*
X013680Y008040D01*
X013605Y008222D01*
X013605Y008346D01*
X013129Y008675D01*
X013077Y008653D01*
X012901Y008653D01*
X012739Y008721D01*
X012614Y008845D01*
X012547Y009008D01*
X012547Y009184D01*
X012614Y009347D01*
X012739Y009471D01*
X011166Y009471D01*
X011143Y009313D02*
X012600Y009313D01*
X012547Y009154D02*
X011119Y009154D01*
X011246Y008996D02*
X012552Y008996D01*
X012622Y008837D02*
X011291Y008837D01*
X011291Y008678D02*
X012841Y008678D01*
X013001Y008315D02*
X013198Y008315D01*
X013380Y008240D01*
X013519Y008101D01*
X013594Y007919D01*
X013594Y007722D01*
X013519Y007540D01*
X013380Y007401D01*
X013198Y007325D01*
X013001Y007325D01*
X012819Y007401D01*
X012680Y007540D01*
X012605Y007722D01*
X012605Y007919D01*
X012680Y008101D01*
X012819Y008240D01*
X013001Y008315D01*
X012782Y008203D02*
X011039Y008203D01*
X011013Y008229D02*
X011291Y007950D01*
X011291Y007772D01*
X010539Y007772D01*
X010539Y008229D01*
X011013Y008229D01*
X011096Y008361D02*
X013583Y008361D01*
X013612Y008203D02*
X013417Y008203D01*
X013542Y008044D02*
X013678Y008044D01*
X013594Y007886D02*
X013855Y007886D01*
X013806Y007727D02*
X013594Y007727D01*
X013531Y007569D02*
X013667Y007569D01*
X013605Y007410D02*
X013389Y007410D01*
X013352Y007252D02*
X013605Y007252D01*
X013658Y007093D02*
X013522Y007093D01*
X013519Y007101D02*
X013594Y006919D01*
X013594Y006722D01*
X013519Y006540D01*
X013380Y006401D01*
X013198Y006325D01*
X013001Y006325D01*
X012819Y006401D01*
X012680Y006540D01*
X012621Y006682D01*
X012614Y006682D01*
X012332Y006964D01*
X012266Y006937D01*
X012090Y006937D01*
X011928Y007004D01*
X011803Y007129D01*
X011736Y007291D01*
X011736Y007467D01*
X011803Y007630D01*
X011928Y007754D01*
X012090Y007822D01*
X012266Y007822D01*
X012429Y007754D01*
X012553Y007630D01*
X012621Y007467D01*
X012621Y007411D01*
X012667Y007365D01*
X012805Y007226D01*
X012819Y007240D01*
X013001Y007315D01*
X013198Y007315D01*
X013380Y007240D01*
X013519Y007101D01*
X013588Y006934D02*
X013785Y006934D01*
X013906Y006776D02*
X013594Y006776D01*
X013551Y006617D02*
X013697Y006617D01*
X013621Y006459D02*
X013438Y006459D01*
X013605Y006300D02*
X013234Y006300D01*
X013125Y006300D02*
X013074Y006300D01*
X012965Y006300D02*
X012111Y006300D01*
X012202Y006142D02*
X012721Y006142D01*
X012631Y005983D02*
X012293Y005983D01*
X012384Y005825D02*
X013074Y005825D01*
X013074Y005983D02*
X013125Y005983D01*
X013125Y006142D02*
X013074Y006142D01*
X013478Y006142D02*
X013638Y006142D01*
X013568Y005983D02*
X013737Y005983D01*
X013099Y006820D02*
X012800Y006942D01*
X012722Y006942D02*
X012407Y007257D01*
X012178Y007379D01*
X011778Y007569D02*
X011291Y007569D01*
X011291Y007557D02*
X011013Y007278D01*
X010539Y007278D01*
X010539Y007735D01*
X010502Y007735D01*
X010502Y007772D01*
X009750Y007772D01*
X009750Y007950D01*
X010029Y008229D01*
X010502Y008229D01*
X010502Y007772D01*
X010539Y007772D01*
X010539Y007735D01*
X011291Y007735D01*
X011291Y007557D01*
X011291Y007727D02*
X011900Y007727D01*
X011736Y007410D02*
X011145Y007410D01*
X011149Y007093D02*
X011839Y007093D01*
X011752Y007252D02*
X009643Y007252D01*
X009651Y007143D02*
X009324Y007147D01*
X009407Y007131D02*
X008548Y007139D01*
X008312Y007123D01*
X008312Y006123D02*
X008533Y006108D01*
X009166Y006120D01*
X009300Y006120D02*
X009678Y006127D01*
X010182Y006679D01*
X010229Y006710D02*
X010521Y006753D01*
X010442Y006746D01*
X010502Y007278D02*
X010029Y007278D01*
X009750Y007557D01*
X009750Y007735D01*
X010502Y007735D01*
X010502Y007278D01*
X010502Y007410D02*
X010539Y007410D01*
X010539Y007569D02*
X010502Y007569D01*
X010502Y007727D02*
X010539Y007727D01*
X010539Y007886D02*
X010502Y007886D01*
X010502Y008044D02*
X010539Y008044D01*
X010539Y008203D02*
X010502Y008203D01*
X010003Y008203D02*
X009494Y008203D01*
X009493Y008361D02*
X009945Y008361D01*
X009844Y008044D02*
X009494Y008044D01*
X009495Y007886D02*
X009750Y007886D01*
X009750Y007727D02*
X009495Y007727D01*
X009496Y007569D02*
X009750Y007569D01*
X009897Y007410D02*
X009496Y007410D01*
X009677Y007093D02*
X009893Y007093D01*
X011291Y007886D02*
X012605Y007886D01*
X012605Y007727D02*
X012456Y007727D01*
X012579Y007569D02*
X012668Y007569D01*
X012621Y007410D02*
X012810Y007410D01*
X012780Y007252D02*
X012847Y007252D01*
X012520Y006776D02*
X011839Y006776D01*
X011929Y006617D02*
X012648Y006617D01*
X012761Y006459D02*
X012020Y006459D01*
X012362Y006934D02*
X011509Y006934D01*
X011197Y008044D02*
X012656Y008044D01*
X013353Y008520D02*
X011255Y008520D01*
X011190Y009630D02*
X019020Y009630D01*
X019019Y009788D02*
X011213Y009788D01*
X011237Y009947D02*
X019019Y009947D01*
X019019Y010105D02*
X011260Y010105D01*
X011283Y010264D02*
X016142Y010264D01*
X016092Y010285D02*
X015871Y010506D01*
X015752Y010794D01*
X015752Y011106D01*
X015871Y011395D01*
X016092Y011616D01*
X016380Y011735D01*
X016693Y011735D01*
X016981Y011616D01*
X017202Y011395D01*
X017321Y011106D01*
X017321Y010794D01*
X017202Y010506D01*
X016981Y010285D01*
X016693Y010165D01*
X016380Y010165D01*
X016092Y010285D01*
X015954Y010422D02*
X014150Y010422D01*
X014090Y010362D02*
X013928Y010295D01*
X013752Y010295D01*
X013589Y010362D01*
X013465Y010487D01*
X013397Y010650D01*
X013397Y010750D01*
X013167Y010968D01*
X013135Y010955D01*
X012938Y010955D01*
X012756Y011031D01*
X012617Y011170D01*
X012542Y011352D01*
X012542Y011549D01*
X012617Y011731D01*
X012756Y011870D01*
X012938Y011945D01*
X013135Y011945D01*
X013317Y011870D01*
X013456Y011731D01*
X013531Y011549D01*
X013531Y011352D01*
X013528Y011343D01*
X013715Y011165D01*
X013752Y011180D01*
X013928Y011180D01*
X014090Y011113D01*
X014215Y010988D01*
X014282Y010826D01*
X014282Y010650D01*
X014215Y010487D01*
X014090Y010362D01*
X014254Y010581D02*
X015840Y010581D01*
X015774Y010739D02*
X014282Y010739D01*
X014252Y010898D02*
X015752Y010898D01*
X015752Y011057D02*
X014146Y011057D01*
X014135Y011455D02*
X014062Y011455D01*
X014062Y011925D01*
X014531Y011925D01*
X014531Y011852D01*
X014456Y011670D01*
X014317Y011531D01*
X014135Y011455D01*
X014062Y011532D02*
X014011Y011532D01*
X014011Y011455D02*
X013938Y011455D01*
X013756Y011531D01*
X013617Y011670D01*
X013542Y011852D01*
X013542Y011925D01*
X014011Y011925D01*
X014011Y011975D01*
X013542Y011975D01*
X013542Y012049D01*
X013617Y012231D01*
X013756Y012370D01*
X013938Y012445D01*
X014011Y012445D01*
X014011Y011975D01*
X014062Y011975D01*
X014062Y011925D01*
X014011Y011925D01*
X014011Y011455D01*
X014011Y011691D02*
X014062Y011691D01*
X014062Y011849D02*
X014011Y011849D01*
X014062Y011975D02*
X014531Y011975D01*
X014531Y012049D01*
X014456Y012231D01*
X014317Y012370D01*
X014135Y012445D01*
X014062Y012445D01*
X014062Y011975D01*
X014062Y012008D02*
X014011Y012008D01*
X014011Y012166D02*
X014062Y012166D01*
X014062Y012325D02*
X014011Y012325D01*
X013938Y012455D02*
X014135Y012455D01*
X014317Y012531D01*
X014456Y012670D01*
X014531Y012852D01*
X014531Y013049D01*
X014456Y013231D01*
X014317Y013370D01*
X014135Y013445D01*
X013938Y013445D01*
X013756Y013370D01*
X013617Y013231D01*
X013542Y013049D01*
X013542Y012852D01*
X013617Y012670D01*
X013756Y012531D01*
X013938Y012455D01*
X013870Y012483D02*
X013531Y012483D01*
X013531Y012475D02*
X013062Y012475D01*
X013062Y012425D01*
X013531Y012425D01*
X013531Y012352D01*
X013456Y012170D01*
X013317Y012031D01*
X013135Y011955D01*
X013062Y011955D01*
X013062Y012425D01*
X013011Y012425D01*
X013011Y012475D01*
X012542Y012475D01*
X012542Y012549D01*
X012617Y012731D01*
X012756Y012870D01*
X012938Y012945D01*
X013011Y012945D01*
X013011Y012475D01*
X013062Y012475D01*
X013062Y012945D01*
X013135Y012945D01*
X013317Y012870D01*
X013456Y012731D01*
X013531Y012549D01*
X013531Y012475D01*
X013520Y012325D02*
X013711Y012325D01*
X013590Y012166D02*
X013453Y012166D01*
X013542Y012008D02*
X013262Y012008D01*
X013337Y011849D02*
X013543Y011849D01*
X013608Y011691D02*
X013473Y011691D01*
X013531Y011532D02*
X013755Y011532D01*
X013531Y011374D02*
X015862Y011374D01*
X015797Y011215D02*
X013662Y011215D01*
X013840Y010738D02*
X013808Y010718D01*
X013036Y011450D01*
X012598Y011215D02*
X011382Y011215D01*
X011379Y011057D02*
X012730Y011057D01*
X012542Y011374D02*
X011385Y011374D01*
X011388Y011532D02*
X012542Y011532D01*
X012600Y011691D02*
X011391Y011691D01*
X011394Y011849D02*
X012736Y011849D01*
X012811Y012008D02*
X011644Y012008D01*
X011406Y012008D02*
X011397Y012008D01*
X011103Y012234D02*
X009627Y012234D01*
X009599Y011244D02*
X010418Y011234D01*
X012359Y011340D01*
X012756Y012031D02*
X012938Y011955D01*
X013011Y011955D01*
X013011Y012425D01*
X012542Y012425D01*
X012542Y012352D01*
X012617Y012170D01*
X012756Y012031D01*
X012620Y012166D02*
X011850Y012166D01*
X011902Y012325D02*
X012553Y012325D01*
X012542Y012483D02*
X011886Y012483D01*
X011784Y012642D02*
X012580Y012642D01*
X012687Y012801D02*
X011411Y012801D01*
X011413Y012959D02*
X012929Y012959D01*
X013011Y012801D02*
X013062Y012801D01*
X013062Y012642D02*
X013011Y012642D01*
X013011Y012483D02*
X013062Y012483D01*
X013062Y012325D02*
X013011Y012325D01*
X013011Y012166D02*
X013062Y012166D01*
X013062Y012008D02*
X013011Y012008D01*
X013493Y012642D02*
X013645Y012642D01*
X013563Y012801D02*
X013386Y012801D01*
X013542Y012959D02*
X013144Y012959D01*
X013404Y013118D02*
X013570Y013118D01*
X013500Y013276D02*
X013662Y013276D01*
X013531Y013435D02*
X013913Y013435D01*
X013938Y013455D02*
X013756Y013531D01*
X013617Y013670D01*
X013542Y013852D01*
X013542Y014049D01*
X013617Y014231D01*
X013756Y014370D01*
X013938Y014445D01*
X014135Y014445D01*
X014317Y014370D01*
X014456Y014231D01*
X014531Y014049D01*
X014531Y013852D01*
X014456Y013670D01*
X014317Y013531D01*
X014135Y013455D01*
X013938Y013455D01*
X014160Y013435D02*
X019013Y013435D01*
X019013Y013593D02*
X014380Y013593D01*
X014490Y013752D02*
X019013Y013752D01*
X019012Y013910D02*
X014531Y013910D01*
X014523Y014069D02*
X019012Y014069D01*
X019012Y014227D02*
X014457Y014227D01*
X014278Y014386D02*
X019012Y014386D01*
X019011Y014545D02*
X014331Y014545D01*
X014317Y014531D02*
X014135Y014455D01*
X013938Y014455D01*
X013756Y014531D01*
X013617Y014670D01*
X013542Y014852D01*
X013542Y014980D01*
X013164Y015245D01*
X013132Y015232D01*
X012956Y015232D01*
X012794Y015299D01*
X012669Y015424D01*
X012602Y015587D01*
X012602Y015763D01*
X012669Y015925D01*
X012794Y016050D01*
X012956Y016117D01*
X013132Y016117D01*
X013295Y016050D01*
X013420Y015925D01*
X013487Y015763D01*
X013487Y015654D01*
X013841Y015405D01*
X013938Y015445D01*
X014135Y015445D01*
X014317Y015370D01*
X014456Y015231D01*
X014531Y015049D01*
X014531Y014852D01*
X014456Y014670D01*
X014317Y014531D01*
X014470Y014703D02*
X016289Y014703D01*
X016380Y014665D02*
X016092Y014785D01*
X015871Y015006D01*
X015752Y015294D01*
X015752Y015606D01*
X015871Y015895D01*
X016092Y016116D01*
X016380Y016235D01*
X016693Y016235D01*
X016981Y016116D01*
X017202Y015895D01*
X017321Y015606D01*
X017321Y015294D01*
X017202Y015006D01*
X016981Y014785D01*
X016693Y014665D01*
X016380Y014665D01*
X016784Y014703D02*
X019011Y014703D01*
X019011Y014862D02*
X017058Y014862D01*
X017208Y015020D02*
X019010Y015020D01*
X019010Y015179D02*
X017274Y015179D01*
X017321Y015337D02*
X019010Y015337D01*
X019010Y015496D02*
X017321Y015496D01*
X017302Y015654D02*
X019009Y015654D01*
X019009Y015813D02*
X017236Y015813D01*
X017125Y015971D02*
X019009Y015971D01*
X019009Y016130D02*
X016947Y016130D01*
X016126Y016130D02*
X011240Y016130D01*
X011240Y016289D02*
X019008Y016289D01*
X019008Y016447D02*
X011240Y016447D01*
X011240Y016606D02*
X012471Y016606D01*
X012471Y016576D02*
X012576Y016471D01*
X013788Y016471D01*
X013894Y016576D01*
X013894Y017075D01*
X014195Y017075D01*
X014405Y017075D01*
X014476Y017075D01*
X014550Y017044D01*
X014751Y017044D01*
X014937Y017121D01*
X015079Y017263D01*
X015141Y017413D01*
X015211Y017243D01*
X015353Y017101D01*
X015538Y017024D01*
X015739Y017024D01*
X015925Y017101D01*
X016067Y017243D01*
X016144Y017429D01*
X016144Y017629D01*
X016067Y017815D01*
X015925Y017957D01*
X015739Y018034D01*
X015538Y018034D01*
X015353Y017957D01*
X015211Y017815D01*
X015149Y017665D01*
X015079Y017835D01*
X014937Y017977D01*
X014751Y018053D01*
X014550Y018053D01*
X014365Y017977D01*
X014223Y017835D01*
X014190Y017755D01*
X013565Y017755D01*
X013492Y017681D01*
X012576Y017681D01*
X012471Y017576D01*
X012471Y016576D01*
X012471Y016764D02*
X011240Y016764D01*
X011240Y016923D02*
X012471Y016923D01*
X012471Y017081D02*
X011181Y017081D01*
X011239Y017240D02*
X012471Y017240D01*
X012471Y017398D02*
X011226Y017398D01*
X011171Y017557D02*
X012471Y017557D01*
X012471Y018350D02*
X010898Y018350D01*
X010843Y018508D02*
X012471Y018508D01*
X012471Y018667D02*
X010788Y018667D01*
X010733Y018825D02*
X013102Y018825D01*
X013102Y018667D02*
X013262Y018667D01*
X013262Y018825D02*
X014604Y018825D01*
X014710Y018667D02*
X013894Y018667D01*
X013894Y018508D02*
X014816Y018508D01*
X014921Y018350D02*
X013894Y018350D01*
X014262Y017874D02*
X011062Y017874D01*
X011007Y018032D02*
X014500Y018032D01*
X014802Y018032D02*
X015535Y018032D01*
X015742Y018032D02*
X016899Y018032D01*
X016910Y018044D02*
X017320Y018044D01*
X017610Y017754D01*
X017610Y017344D01*
X017320Y017054D01*
X016910Y017054D01*
X016620Y017344D01*
X016620Y017754D01*
X016910Y018044D01*
X016741Y017874D02*
X016008Y017874D01*
X016108Y017715D02*
X016620Y017715D01*
X016620Y017557D02*
X016144Y017557D01*
X016131Y017398D02*
X016620Y017398D01*
X016724Y017240D02*
X016064Y017240D01*
X015877Y017081D02*
X016883Y017081D01*
X017348Y017081D02*
X017883Y017081D01*
X017910Y017054D02*
X017620Y017344D01*
X017620Y017754D01*
X017910Y018044D01*
X018320Y018044D01*
X018610Y017754D01*
X018610Y017344D01*
X018320Y017054D01*
X017910Y017054D01*
X017724Y017240D02*
X017506Y017240D01*
X017610Y017398D02*
X017620Y017398D01*
X017620Y017557D02*
X017610Y017557D01*
X017620Y017715D02*
X017610Y017715D01*
X017490Y017874D02*
X017741Y017874D01*
X017899Y018032D02*
X017331Y018032D01*
X018331Y018032D02*
X019005Y018032D01*
X019006Y017874D02*
X018490Y017874D01*
X018610Y017715D02*
X019006Y017715D01*
X019006Y017557D02*
X018610Y017557D01*
X018610Y017398D02*
X019006Y017398D01*
X019007Y017240D02*
X018506Y017240D01*
X018348Y017081D02*
X019007Y017081D01*
X019007Y016923D02*
X013894Y016923D01*
X013894Y016764D02*
X019007Y016764D01*
X019008Y016606D02*
X013894Y016606D01*
X013373Y015971D02*
X015948Y015971D01*
X015837Y015813D02*
X013466Y015813D01*
X013487Y015654D02*
X015771Y015654D01*
X015752Y015496D02*
X013712Y015496D01*
X013485Y015020D02*
X011395Y015020D01*
X011397Y014862D02*
X012748Y014862D01*
X012756Y014870D02*
X012938Y014945D01*
X013135Y014945D01*
X013317Y014870D01*
X013456Y014731D01*
X013531Y014549D01*
X013531Y014352D01*
X013456Y014170D01*
X013317Y014031D01*
X013135Y013955D01*
X012938Y013955D01*
X012756Y014031D01*
X012617Y014170D01*
X012542Y014352D01*
X012542Y014549D01*
X012617Y014731D01*
X012756Y014870D01*
X012605Y014703D02*
X011399Y014703D01*
X011401Y014545D02*
X012542Y014545D01*
X012542Y014386D02*
X011404Y014386D01*
X011406Y014227D02*
X012593Y014227D01*
X012718Y014069D02*
X011408Y014069D01*
X011410Y013910D02*
X012854Y013910D01*
X012638Y013752D02*
X011412Y013752D01*
X011414Y013593D02*
X011568Y013593D01*
X012141Y013118D02*
X012669Y013118D01*
X013036Y013450D02*
X010533Y013249D01*
X009603Y013251D01*
X009572Y014462D02*
X009796Y015135D01*
X009981Y015813D02*
X012623Y015813D01*
X012602Y015654D02*
X011358Y015654D01*
X011389Y015496D02*
X012640Y015496D01*
X012756Y015337D02*
X011391Y015337D01*
X011393Y015179D02*
X013259Y015179D01*
X013325Y014862D02*
X013542Y014862D01*
X013603Y014703D02*
X013468Y014703D01*
X013531Y014545D02*
X013742Y014545D01*
X013795Y014386D02*
X013531Y014386D01*
X013480Y014227D02*
X013616Y014227D01*
X013550Y014069D02*
X013355Y014069D01*
X013219Y013910D02*
X013542Y013910D01*
X013583Y013752D02*
X013435Y013752D01*
X013513Y013593D02*
X013693Y013593D01*
X014411Y013276D02*
X019013Y013276D01*
X019014Y013118D02*
X014503Y013118D01*
X014531Y012959D02*
X019014Y012959D01*
X019014Y012801D02*
X014510Y012801D01*
X014428Y012642D02*
X019014Y012642D01*
X019015Y012483D02*
X014203Y012483D01*
X014362Y012325D02*
X019015Y012325D01*
X019015Y012166D02*
X014483Y012166D01*
X014531Y012008D02*
X019016Y012008D01*
X019016Y011849D02*
X014531Y011849D01*
X014465Y011691D02*
X016273Y011691D01*
X016008Y011532D02*
X014319Y011532D01*
X013397Y010739D02*
X011354Y010739D01*
X011330Y010581D02*
X013426Y010581D01*
X013529Y010422D02*
X011307Y010422D01*
X011375Y010898D02*
X013241Y010898D01*
X013077Y009538D02*
X013240Y009471D01*
X013364Y009347D01*
X013432Y009184D01*
X013432Y009097D01*
X013901Y008774D01*
X014001Y008815D01*
X014198Y008815D01*
X014380Y008740D01*
X014519Y008601D01*
X014594Y008419D01*
X014594Y008222D01*
X014519Y008040D01*
X014380Y007901D01*
X014521Y008044D02*
X016422Y008044D01*
X016443Y008035D02*
X016155Y008155D01*
X015934Y008376D01*
X015815Y008664D01*
X015815Y008976D01*
X015934Y009265D01*
X016155Y009486D01*
X016443Y009605D01*
X016756Y009605D01*
X017044Y009486D01*
X017265Y009265D01*
X017384Y008976D01*
X017384Y008664D01*
X017265Y008376D01*
X017044Y008155D01*
X016756Y008035D01*
X016443Y008035D01*
X016107Y008203D02*
X014587Y008203D01*
X014594Y008361D02*
X015948Y008361D01*
X015874Y008520D02*
X014553Y008520D01*
X014441Y008678D02*
X015815Y008678D01*
X015815Y008837D02*
X013809Y008837D01*
X013579Y008996D02*
X015822Y008996D01*
X015888Y009154D02*
X013432Y009154D01*
X013378Y009313D02*
X015982Y009313D01*
X016140Y009471D02*
X013240Y009471D01*
X013077Y009538D02*
X012901Y009538D01*
X012739Y009471D01*
X012989Y009096D02*
X013005Y009076D01*
X014099Y008320D01*
X014454Y005666D02*
X019026Y005666D01*
X019027Y005508D02*
X014558Y005508D01*
X014594Y005349D02*
X019027Y005349D01*
X019027Y005190D02*
X014582Y005190D01*
X014511Y005032D02*
X016266Y005032D01*
X016042Y004873D02*
X014314Y004873D01*
X014220Y004556D02*
X015848Y004556D01*
X015815Y004398D02*
X014455Y004398D01*
X014119Y004104D02*
X014099Y004127D01*
X013979Y004556D02*
X013927Y004556D01*
X013702Y004715D02*
X015913Y004715D01*
X016933Y005032D02*
X019028Y005032D01*
X019028Y004873D02*
X017157Y004873D01*
X017286Y004715D02*
X019028Y004715D01*
X019028Y004556D02*
X017351Y004556D01*
X017384Y004398D02*
X019029Y004398D01*
X019022Y008044D02*
X016777Y008044D01*
X017092Y008203D02*
X019022Y008203D01*
X019022Y008361D02*
X017251Y008361D01*
X017325Y008520D02*
X019022Y008520D01*
X019021Y008678D02*
X017384Y008678D01*
X017384Y008837D02*
X019021Y008837D01*
X019021Y008996D02*
X017377Y008996D01*
X017311Y009154D02*
X019020Y009154D01*
X019020Y009313D02*
X017217Y009313D01*
X017059Y009471D02*
X019020Y009471D01*
X019019Y010264D02*
X016931Y010264D01*
X017119Y010422D02*
X019018Y010422D01*
X019018Y010581D02*
X017233Y010581D01*
X017299Y010739D02*
X019018Y010739D01*
X019017Y010898D02*
X017321Y010898D01*
X017321Y011057D02*
X019017Y011057D01*
X019017Y011215D02*
X017276Y011215D01*
X017211Y011374D02*
X019017Y011374D01*
X019016Y011532D02*
X017065Y011532D01*
X016800Y011691D02*
X019016Y011691D01*
X016015Y014862D02*
X014531Y014862D01*
X014531Y015020D02*
X015865Y015020D01*
X015799Y015179D02*
X014478Y015179D01*
X014349Y015337D02*
X015752Y015337D01*
X014036Y014950D02*
X013005Y015675D01*
X013044Y015675D01*
X012715Y015971D02*
X011096Y015971D01*
X010544Y015971D02*
X010096Y015971D01*
X009994Y015869D02*
X010240Y016115D01*
X010240Y016529D01*
X010240Y016943D01*
X009994Y017189D01*
X009820Y017189D01*
X009820Y016529D01*
X009820Y016529D01*
X009820Y017189D01*
X009646Y017189D01*
X009400Y016943D01*
X009400Y016529D01*
X009820Y016529D01*
X009820Y016529D01*
X010240Y016529D01*
X009820Y016529D01*
X009820Y016529D01*
X009400Y016529D01*
X009400Y016115D01*
X009646Y015869D01*
X009820Y015869D01*
X009820Y016529D01*
X009820Y016529D01*
X009820Y015869D01*
X009994Y015869D01*
X009820Y015971D02*
X009820Y015971D01*
X009820Y016130D02*
X009820Y016130D01*
X009820Y016289D02*
X009820Y016289D01*
X009820Y016447D02*
X009820Y016447D01*
X009820Y016606D02*
X009820Y016606D01*
X009820Y016764D02*
X009820Y016764D01*
X009820Y016923D02*
X009820Y016923D01*
X009820Y017081D02*
X009820Y017081D01*
X009538Y017081D02*
X009102Y017081D01*
X009127Y017196D02*
X008953Y017196D01*
X008707Y017442D01*
X008707Y017856D01*
X008707Y018270D01*
X008953Y018516D01*
X009127Y018516D01*
X009127Y017856D01*
X009127Y017856D01*
X009127Y018516D01*
X009301Y018516D01*
X009547Y018270D01*
X009547Y017856D01*
X009127Y017856D01*
X008707Y017856D01*
X009127Y017856D01*
X009127Y017856D01*
X009127Y017856D01*
X009547Y017856D01*
X009547Y017442D01*
X009301Y017196D01*
X009127Y017196D01*
X009127Y017855D01*
X009127Y017855D01*
X009127Y017196D01*
X009127Y017240D02*
X009127Y017240D01*
X009127Y017398D02*
X009127Y017398D01*
X009127Y017557D02*
X009127Y017557D01*
X009127Y017715D02*
X009127Y017715D01*
X009127Y017874D02*
X009127Y017874D01*
X009127Y018032D02*
X009127Y018032D01*
X009127Y018191D02*
X009127Y018191D01*
X009127Y018350D02*
X009127Y018350D01*
X009127Y018508D02*
X009127Y018508D01*
X008946Y018508D02*
X008776Y018508D01*
X008787Y018350D02*
X008695Y018350D01*
X008707Y018191D02*
X008614Y018191D01*
X008547Y018032D02*
X008707Y018032D01*
X008707Y017874D02*
X008547Y017874D01*
X008547Y017715D02*
X008707Y017715D01*
X008707Y017557D02*
X008547Y017557D01*
X008559Y017398D02*
X008751Y017398D01*
X008627Y017240D02*
X008909Y017240D01*
X009345Y017240D02*
X010477Y017240D01*
X010422Y017398D02*
X009504Y017398D01*
X009547Y017557D02*
X010368Y017557D01*
X010313Y017715D02*
X009547Y017715D01*
X009547Y017874D02*
X010258Y017874D01*
X010203Y018032D02*
X009547Y018032D01*
X009547Y018191D02*
X010149Y018191D01*
X010094Y018350D02*
X009467Y018350D01*
X009309Y018508D02*
X010039Y018508D01*
X010679Y018984D02*
X012471Y018984D01*
X012471Y019142D02*
X011660Y019142D01*
X011669Y019151D02*
X011564Y019046D01*
X011212Y019046D01*
X011212Y019502D01*
X011176Y019502D01*
X011176Y019046D01*
X010824Y019046D01*
X010719Y019151D01*
X010719Y019503D01*
X011175Y019503D01*
X011175Y019540D01*
X010719Y019540D01*
X010719Y019891D01*
X010824Y019996D01*
X011176Y019996D01*
X011176Y019540D01*
X011212Y019540D01*
X011212Y019996D01*
X011564Y019996D01*
X011669Y019891D01*
X011669Y019540D01*
X011213Y019540D01*
X011213Y019503D01*
X011669Y019503D01*
X011669Y019151D01*
X011669Y019301D02*
X012471Y019301D01*
X013102Y019301D02*
X013262Y019301D01*
X013262Y019142D02*
X013102Y019142D01*
X013102Y018984D02*
X013262Y018984D01*
X013577Y019459D02*
X011669Y019459D01*
X011669Y019618D02*
X013985Y019618D01*
X014001Y019459D02*
X013986Y019459D01*
X014001Y019301D02*
X013986Y019301D01*
X013894Y019142D02*
X014393Y019142D01*
X014498Y018984D02*
X013894Y018984D01*
X013262Y018508D02*
X013102Y018508D01*
X013102Y018350D02*
X013262Y018350D01*
X013526Y017715D02*
X011117Y017715D01*
X010859Y017297D02*
X010820Y016529D01*
X010400Y016606D02*
X010240Y016606D01*
X010240Y016764D02*
X010400Y016764D01*
X010400Y016923D02*
X010240Y016923D01*
X010102Y017081D02*
X010537Y017081D01*
X010400Y016447D02*
X010240Y016447D01*
X010240Y016289D02*
X010400Y016289D01*
X010400Y016130D02*
X010240Y016130D01*
X009544Y015971D02*
X009169Y015971D01*
X009240Y016130D02*
X009400Y016130D01*
X009400Y016289D02*
X009240Y016289D01*
X009240Y016447D02*
X009400Y016447D01*
X009400Y016606D02*
X009240Y016606D01*
X009240Y016764D02*
X009400Y016764D01*
X009400Y016923D02*
X009240Y016923D01*
X010952Y018191D02*
X015027Y018191D01*
X015039Y017874D02*
X015270Y017874D01*
X015170Y017715D02*
X015128Y017715D01*
X015147Y017398D02*
X015135Y017398D01*
X015214Y017240D02*
X015056Y017240D01*
X014841Y017081D02*
X015401Y017081D01*
X013582Y019776D02*
X011669Y019776D01*
X011625Y019935D02*
X013691Y019935D01*
X013759Y020094D02*
X010532Y020094D01*
X010481Y019935D02*
X010763Y019935D01*
X010719Y019776D02*
X010430Y019776D01*
X010379Y019618D02*
X010719Y019618D01*
X010719Y019459D02*
X010329Y019459D01*
X010534Y019301D02*
X010719Y019301D01*
X010728Y019142D02*
X010637Y019142D01*
X011176Y019142D02*
X011212Y019142D01*
X011212Y019301D02*
X011176Y019301D01*
X011176Y019459D02*
X011212Y019459D01*
X011212Y019618D02*
X011176Y019618D01*
X011176Y019776D02*
X011212Y019776D01*
X011212Y019935D02*
X011176Y019935D01*
X007127Y017856D02*
X006707Y017856D01*
X007127Y017856D01*
X007127Y017856D01*
X006707Y017874D02*
X006547Y017874D01*
X006547Y018032D02*
X006707Y018032D01*
X006707Y018191D02*
X006547Y018191D01*
X006547Y017715D02*
X006707Y017715D01*
X006707Y017557D02*
X006547Y017557D01*
X006504Y017398D02*
X006751Y017398D01*
X006909Y017240D02*
X006345Y017240D01*
X006538Y017081D02*
X006102Y017081D01*
X005994Y017189D02*
X006240Y016943D01*
X006240Y016115D01*
X005994Y015869D01*
X005920Y015869D01*
X005920Y014593D01*
X006485Y014593D01*
X006591Y014487D01*
X006591Y014023D01*
X006485Y013918D01*
X005155Y013918D01*
X005049Y014023D01*
X005049Y014487D01*
X005155Y014593D01*
X005460Y014593D01*
X005460Y016055D01*
X005400Y016115D01*
X005400Y016943D01*
X005646Y017189D01*
X005994Y017189D01*
X005909Y017240D02*
X004196Y017240D01*
X004102Y017081D02*
X004538Y017081D01*
X004646Y017189D02*
X004820Y017189D01*
X004994Y017189D01*
X005240Y016943D01*
X005240Y016529D01*
X004820Y016529D01*
X004820Y017189D01*
X004820Y016529D01*
X004820Y016529D01*
X004820Y016529D01*
X004400Y016529D01*
X004400Y016943D01*
X004646Y017189D01*
X004820Y017081D02*
X004820Y017081D01*
X004820Y016923D02*
X004820Y016923D01*
X004820Y016764D02*
X004820Y016764D01*
X004820Y016606D02*
X004820Y016606D01*
X004820Y016529D02*
X004820Y016529D01*
X005240Y016529D01*
X005240Y016115D01*
X004994Y015869D01*
X004820Y015869D01*
X004646Y015869D01*
X004400Y016115D01*
X004400Y016529D01*
X004820Y016529D01*
X004820Y015869D01*
X004820Y016529D01*
X004820Y016529D01*
X004820Y016447D02*
X004820Y016447D01*
X004820Y016289D02*
X004820Y016289D01*
X004820Y016130D02*
X004820Y016130D01*
X004820Y015971D02*
X004820Y015971D01*
X005096Y015971D02*
X005460Y015971D01*
X005460Y015813D02*
X002124Y015813D01*
X002465Y015971D02*
X003544Y015971D01*
X003400Y016130D02*
X002799Y016130D01*
X002955Y016289D02*
X003400Y016289D01*
X003400Y016447D02*
X003112Y016447D01*
X003269Y016606D02*
X003400Y016606D01*
X004096Y015971D02*
X004544Y015971D01*
X004400Y016130D02*
X004240Y016130D01*
X004240Y016289D02*
X004400Y016289D01*
X004400Y016447D02*
X004240Y016447D01*
X004240Y016606D02*
X004400Y016606D01*
X004400Y016764D02*
X004240Y016764D01*
X004240Y016923D02*
X004400Y016923D01*
X004454Y017398D02*
X005751Y017398D01*
X005707Y017557D02*
X004711Y017557D01*
X004969Y017715D02*
X005707Y017715D01*
X005707Y017874D02*
X005227Y017874D01*
X005485Y018032D02*
X005707Y018032D01*
X005538Y017081D02*
X005102Y017081D01*
X005240Y016923D02*
X005400Y016923D01*
X005400Y016764D02*
X005240Y016764D01*
X005240Y016606D02*
X005400Y016606D01*
X005400Y016447D02*
X005240Y016447D01*
X005240Y016289D02*
X005400Y016289D01*
X005400Y016130D02*
X005240Y016130D01*
X005460Y015654D02*
X001782Y015654D01*
X001656Y015496D02*
X005460Y015496D01*
X005460Y015337D02*
X001656Y015337D01*
X001656Y015179D02*
X005460Y015179D01*
X005460Y015020D02*
X001656Y015020D01*
X001656Y014862D02*
X005460Y014862D01*
X005460Y014703D02*
X001656Y014703D01*
X001656Y014545D02*
X002446Y014545D01*
X002409Y014508D02*
X002534Y014632D01*
X002696Y014700D01*
X002873Y014700D01*
X003035Y014632D01*
X003160Y014508D01*
X003227Y014345D01*
X003227Y014169D01*
X003160Y014007D01*
X003035Y013882D01*
X002873Y013815D01*
X002696Y013815D01*
X002534Y013882D01*
X002409Y014007D01*
X002342Y014169D01*
X002342Y014345D01*
X002409Y014508D01*
X002359Y014386D02*
X001656Y014386D01*
X001656Y014227D02*
X002342Y014227D01*
X002384Y014069D02*
X001656Y014069D01*
X001656Y013910D02*
X002506Y013910D01*
X002553Y013819D02*
X002673Y013699D01*
X002738Y013543D01*
X002738Y013373D01*
X002673Y013217D01*
X002553Y013097D01*
X002408Y013037D01*
X002553Y012976D01*
X002673Y012857D01*
X002738Y012700D01*
X002738Y012531D01*
X002673Y012374D01*
X002553Y012255D01*
X002397Y012190D01*
X002227Y012190D01*
X002071Y012255D01*
X001951Y012374D01*
X001886Y012531D01*
X001886Y012700D01*
X001951Y012857D01*
X002071Y012976D01*
X002217Y013037D01*
X002071Y013097D01*
X001951Y013217D01*
X001886Y013373D01*
X001886Y013543D01*
X001951Y013699D01*
X002071Y013819D01*
X002227Y013884D01*
X002397Y013884D01*
X002553Y013819D01*
X002620Y013752D02*
X006623Y013752D01*
X006630Y013910D02*
X003063Y013910D01*
X003185Y014069D02*
X005049Y014069D01*
X005049Y014227D02*
X003227Y014227D01*
X003210Y014386D02*
X005049Y014386D01*
X005107Y014545D02*
X003123Y014545D01*
X002717Y013593D02*
X006617Y013593D01*
X006610Y013435D02*
X006591Y013435D01*
X006603Y013276D02*
X006591Y013276D01*
X006596Y013118D02*
X006591Y013118D01*
X006589Y012959D02*
X006530Y012959D01*
X006582Y012801D02*
X005485Y012801D01*
X005428Y012642D02*
X006576Y012642D01*
X005828Y012251D02*
X005009Y012271D01*
X004096Y012293D01*
X003846Y012008D02*
X002429Y012008D01*
X002424Y012010D02*
X002581Y011945D01*
X002701Y011825D01*
X002765Y011669D01*
X002765Y011499D01*
X002701Y011343D01*
X002581Y011223D01*
X002424Y011158D01*
X002255Y011158D01*
X002099Y011223D01*
X001979Y011343D01*
X001914Y011499D01*
X001914Y011669D01*
X001979Y011825D01*
X002099Y011945D01*
X002255Y012010D01*
X002424Y012010D01*
X002250Y012008D02*
X001655Y012008D01*
X001655Y012166D02*
X003718Y012166D01*
X003718Y012325D02*
X002624Y012325D01*
X002718Y012483D02*
X003752Y012483D01*
X003911Y012642D02*
X002738Y012642D01*
X002696Y012801D02*
X003235Y012801D01*
X003119Y012959D02*
X002571Y012959D01*
X002574Y013118D02*
X003119Y013118D01*
X003167Y013276D02*
X002698Y013276D01*
X002738Y013435D02*
X003325Y013435D01*
X003669Y013435D02*
X004313Y013435D01*
X004705Y012959D02*
X004786Y012959D01*
X004769Y012801D02*
X003760Y012801D01*
X003497Y013072D02*
X004949Y013251D01*
X005820Y013251D01*
X006591Y014069D02*
X006637Y014069D01*
X006644Y014227D02*
X006591Y014227D01*
X006591Y014386D02*
X006651Y014386D01*
X006658Y014545D02*
X006533Y014545D01*
X006664Y014703D02*
X005920Y014703D01*
X005920Y014862D02*
X006671Y014862D01*
X006678Y015020D02*
X005920Y015020D01*
X005920Y015179D02*
X006685Y015179D01*
X006701Y015337D02*
X005920Y015337D01*
X005920Y015496D02*
X006746Y015496D01*
X006791Y015654D02*
X005920Y015654D01*
X005920Y015813D02*
X006835Y015813D01*
X006544Y015971D02*
X006096Y015971D01*
X006240Y016130D02*
X006400Y016130D01*
X006400Y016289D02*
X006240Y016289D01*
X006240Y016447D02*
X006400Y016447D01*
X006400Y016606D02*
X006240Y016606D01*
X006240Y016764D02*
X006400Y016764D01*
X006400Y016923D02*
X006240Y016923D01*
X004826Y012642D02*
X004281Y012642D01*
X004345Y012008D02*
X004632Y012008D01*
X004584Y011849D02*
X002677Y011849D01*
X002756Y011691D02*
X004608Y011691D01*
X004724Y011532D02*
X002765Y011532D01*
X002713Y011374D02*
X005049Y011374D01*
X005049Y011215D02*
X002561Y011215D01*
X002118Y011215D02*
X001655Y011215D01*
X001654Y011057D02*
X005049Y011057D01*
X005276Y011691D02*
X006535Y011691D01*
X006541Y011849D02*
X005300Y011849D01*
X005820Y011532D02*
X005820Y011532D01*
X005820Y011374D02*
X005820Y011374D01*
X005820Y011215D02*
X005820Y011215D01*
X005820Y011057D02*
X005820Y011057D01*
X006500Y010898D02*
X001654Y010898D01*
X001654Y010739D02*
X006494Y010739D01*
X006456Y010581D02*
X001654Y010581D01*
X001654Y010422D02*
X006367Y010422D01*
X006277Y010264D02*
X001654Y010264D01*
X001654Y010105D02*
X006188Y010105D01*
X006098Y009947D02*
X002566Y009947D01*
X002702Y009788D02*
X006008Y009788D01*
X005991Y009630D02*
X002702Y009630D01*
X002674Y009471D02*
X005989Y009471D01*
X005987Y009313D02*
X002521Y009313D01*
X002489Y009154D02*
X003974Y009154D01*
X003796Y008996D02*
X002458Y008996D01*
X002427Y008837D02*
X003737Y008837D01*
X003529Y008678D02*
X002395Y008678D01*
X002364Y008520D02*
X002604Y008520D01*
X002445Y008361D02*
X002357Y008361D01*
X002099Y008525D02*
X002324Y009655D01*
X001946Y009630D02*
X001654Y009630D01*
X001654Y009788D02*
X001946Y009788D01*
X002081Y009947D02*
X001654Y009947D01*
X001654Y009471D02*
X001973Y009471D01*
X001991Y009313D02*
X001654Y009313D01*
X001654Y009154D02*
X001959Y009154D01*
X001928Y008996D02*
X001654Y008996D01*
X001654Y008837D02*
X001896Y008837D01*
X001865Y008678D02*
X001654Y008678D01*
X001653Y008520D02*
X001839Y008520D01*
X001837Y008361D02*
X001653Y008361D01*
X001653Y008203D02*
X001834Y008203D01*
X001832Y008044D02*
X001653Y008044D01*
X001653Y007886D02*
X001829Y007886D01*
X001826Y007727D02*
X001653Y007727D01*
X001653Y007569D02*
X001824Y007569D01*
X001820Y007410D02*
X001653Y007410D01*
X001653Y007252D02*
X001820Y007252D01*
X001955Y007093D02*
X001653Y007093D01*
X001653Y006934D02*
X002331Y006934D01*
X002405Y006776D02*
X001653Y006776D01*
X001653Y006617D02*
X002564Y006617D01*
X002784Y006459D02*
X004653Y006459D01*
X004850Y006300D02*
X004938Y006300D01*
X005144Y006300D02*
X005144Y006300D01*
X005144Y006142D02*
X005144Y006142D01*
X005144Y005983D02*
X005144Y005983D01*
X005144Y005825D02*
X005144Y005825D01*
X004644Y005701D02*
X003859Y005801D01*
X003506Y005666D02*
X001652Y005666D01*
X001652Y005508D02*
X002415Y005508D01*
X002421Y005514D02*
X002599Y005514D01*
X002599Y005084D01*
X002599Y005084D01*
X002170Y005084D01*
X002170Y004906D01*
X002421Y004654D01*
X002599Y004654D01*
X002599Y005084D01*
X002170Y005084D01*
X002170Y005262D01*
X002421Y005514D01*
X002599Y005508D02*
X002600Y005508D01*
X002600Y005514D02*
X002778Y005514D01*
X003029Y005262D01*
X003029Y005084D01*
X003029Y004906D01*
X002778Y004654D01*
X002600Y004654D01*
X002600Y005084D01*
X003029Y005084D01*
X002600Y005084D01*
X002600Y005084D01*
X002599Y005084D01*
X002600Y005084D01*
X002600Y005514D01*
X002600Y005349D02*
X002599Y005349D01*
X002600Y005190D02*
X002599Y005190D01*
X002600Y005032D02*
X002599Y005032D01*
X002600Y004873D02*
X002599Y004873D01*
X002600Y004715D02*
X002599Y004715D01*
X002361Y004715D02*
X001652Y004715D01*
X001652Y004873D02*
X002202Y004873D01*
X002170Y005032D02*
X001652Y005032D01*
X001652Y005190D02*
X002170Y005190D01*
X002256Y005349D02*
X001652Y005349D01*
X001652Y005825D02*
X002166Y005825D01*
X002054Y005983D02*
X001652Y005983D01*
X001653Y006142D02*
X002019Y006142D01*
X002043Y006300D02*
X001653Y006300D01*
X001653Y006459D02*
X002140Y006459D01*
X002880Y006300D02*
X004438Y006300D01*
X004346Y006142D02*
X004023Y006142D01*
X003696Y006142D02*
X002904Y006142D01*
X002870Y005983D02*
X003526Y005983D01*
X003482Y005825D02*
X002757Y005825D01*
X002784Y005508D02*
X003618Y005508D01*
X004101Y005508D02*
X004102Y005508D01*
X004286Y005190D02*
X003029Y005190D01*
X003029Y005032D02*
X004223Y005032D01*
X004223Y004873D02*
X002997Y004873D01*
X002838Y004715D02*
X004223Y004715D01*
X004223Y004556D02*
X001652Y004556D01*
X001652Y004398D02*
X002305Y004398D01*
X002421Y004514D02*
X002778Y004514D01*
X003029Y004262D01*
X003029Y003906D01*
X002778Y003654D01*
X002421Y003654D01*
X002170Y003906D01*
X002170Y004262D01*
X002421Y004514D01*
X002170Y004239D02*
X001652Y004239D01*
X001652Y004081D02*
X002170Y004081D01*
X002170Y003922D02*
X001652Y003922D01*
X001652Y003764D02*
X002312Y003764D01*
X002887Y003764D02*
X003562Y003764D01*
X003562Y003922D02*
X003029Y003922D01*
X003029Y004081D02*
X003562Y004081D01*
X003562Y004239D02*
X003029Y004239D01*
X002894Y004398D02*
X003562Y004398D01*
X004472Y004239D02*
X005895Y004239D01*
X006003Y004081D02*
X004472Y004081D01*
X004472Y003922D02*
X006111Y003922D01*
X006123Y003764D02*
X004472Y003764D01*
X004310Y003329D02*
X004591Y003047D01*
X004591Y002569D01*
X004132Y002569D01*
X004132Y002529D01*
X004591Y002529D01*
X004591Y002050D01*
X004310Y001769D01*
X004131Y001769D01*
X004131Y002528D01*
X004091Y002528D01*
X004091Y001769D01*
X003913Y001769D01*
X003631Y002050D01*
X003631Y002529D01*
X004091Y002529D01*
X004091Y002569D01*
X004131Y002569D01*
X004131Y003329D01*
X004310Y003329D01*
X004351Y003288D02*
X004872Y003288D01*
X004913Y003329D02*
X005091Y003329D01*
X005091Y002569D01*
X005131Y002569D01*
X005131Y003329D01*
X005310Y003329D01*
X005591Y003047D01*
X005591Y002569D01*
X005132Y002569D01*
X005132Y002529D01*
X005591Y002529D01*
X005591Y002050D01*
X005310Y001769D01*
X005131Y001769D01*
X005131Y002528D01*
X005091Y002528D01*
X005091Y001769D01*
X004913Y001769D01*
X004631Y002050D01*
X004631Y002529D01*
X005091Y002529D01*
X005091Y002569D01*
X004631Y002569D01*
X004631Y003047D01*
X004913Y003329D01*
X005091Y003288D02*
X005131Y003288D01*
X005131Y003129D02*
X005091Y003129D01*
X005091Y002971D02*
X005131Y002971D01*
X005131Y002812D02*
X005091Y002812D01*
X005091Y002654D02*
X005131Y002654D01*
X005131Y002495D02*
X005091Y002495D01*
X005091Y002337D02*
X005131Y002337D01*
X005131Y002178D02*
X005091Y002178D01*
X005091Y002020D02*
X005131Y002020D01*
X005131Y001861D02*
X005091Y001861D01*
X004820Y001861D02*
X004403Y001861D01*
X004561Y002020D02*
X004662Y002020D01*
X004631Y002178D02*
X004591Y002178D01*
X004591Y002337D02*
X004631Y002337D01*
X004631Y002495D02*
X004591Y002495D01*
X004591Y002654D02*
X004631Y002654D01*
X004631Y002812D02*
X004591Y002812D01*
X004591Y002971D02*
X004631Y002971D01*
X004713Y003129D02*
X004509Y003129D01*
X004131Y003129D02*
X004091Y003129D01*
X004091Y002971D02*
X004131Y002971D01*
X004131Y002812D02*
X004091Y002812D01*
X004091Y002654D02*
X004131Y002654D01*
X004091Y002569D02*
X004091Y003329D01*
X003913Y003329D01*
X003631Y003047D01*
X003631Y002569D01*
X004091Y002569D01*
X004091Y002495D02*
X004131Y002495D01*
X004131Y002337D02*
X004091Y002337D01*
X004091Y002178D02*
X004131Y002178D01*
X004131Y002020D02*
X004091Y002020D01*
X004091Y001861D02*
X004131Y001861D01*
X003820Y001861D02*
X003403Y001861D01*
X003310Y001769D02*
X003131Y001769D01*
X003131Y002528D01*
X003091Y002528D01*
X003091Y001769D01*
X002913Y001769D01*
X002631Y002050D01*
X002631Y002529D01*
X003091Y002529D01*
X003091Y002569D01*
X003131Y002569D01*
X003131Y003329D01*
X003310Y003329D01*
X003591Y003047D01*
X003591Y002569D01*
X003132Y002569D01*
X003132Y002529D01*
X003591Y002529D01*
X003591Y002050D01*
X003310Y001769D01*
X003131Y001861D02*
X003091Y001861D01*
X003091Y002020D02*
X003131Y002020D01*
X003131Y002178D02*
X003091Y002178D01*
X003091Y002337D02*
X003131Y002337D01*
X003131Y002495D02*
X003091Y002495D01*
X003091Y002569D02*
X002631Y002569D01*
X002631Y003047D01*
X002913Y003329D01*
X003091Y003329D01*
X003091Y002569D01*
X003091Y002654D02*
X003131Y002654D01*
X003131Y002812D02*
X003091Y002812D01*
X003091Y002971D02*
X003131Y002971D01*
X003131Y003129D02*
X003091Y003129D01*
X003091Y003288D02*
X003131Y003288D01*
X003351Y003288D02*
X003872Y003288D01*
X004091Y003288D02*
X004131Y003288D01*
X003713Y003129D02*
X003509Y003129D01*
X003591Y002971D02*
X003631Y002971D01*
X003631Y002812D02*
X003591Y002812D01*
X003591Y002654D02*
X003631Y002654D01*
X003631Y002495D02*
X003591Y002495D01*
X003591Y002337D02*
X003631Y002337D01*
X003631Y002178D02*
X003591Y002178D01*
X003561Y002020D02*
X003662Y002020D01*
X002820Y001861D02*
X001651Y001861D01*
X001651Y002020D02*
X002662Y002020D01*
X002631Y002178D02*
X001651Y002178D01*
X001651Y002337D02*
X002631Y002337D01*
X002631Y002495D02*
X001651Y002495D01*
X001651Y002654D02*
X002631Y002654D01*
X002631Y002812D02*
X001651Y002812D01*
X001651Y002971D02*
X002631Y002971D01*
X002713Y003129D02*
X001651Y003129D01*
X001651Y003288D02*
X002872Y003288D01*
X001651Y003446D02*
X006171Y003446D01*
X006091Y003329D02*
X006091Y002569D01*
X005631Y002569D01*
X005631Y003047D01*
X005913Y003329D01*
X006091Y003329D01*
X006091Y003288D02*
X006131Y003288D01*
X006131Y003129D02*
X006091Y003129D01*
X006091Y002971D02*
X006131Y002971D01*
X006131Y002812D02*
X006091Y002812D01*
X006091Y002654D02*
X006131Y002654D01*
X006131Y002495D02*
X006091Y002495D01*
X006091Y002337D02*
X006131Y002337D01*
X006131Y002178D02*
X006091Y002178D01*
X006091Y002020D02*
X006131Y002020D01*
X006131Y001861D02*
X006091Y001861D01*
X005820Y001861D02*
X005403Y001861D01*
X005561Y002020D02*
X005662Y002020D01*
X005631Y002178D02*
X005591Y002178D01*
X005591Y002337D02*
X005631Y002337D01*
X005631Y002495D02*
X005591Y002495D01*
X005591Y002654D02*
X005631Y002654D01*
X005631Y002812D02*
X005591Y002812D01*
X005591Y002971D02*
X005631Y002971D01*
X005713Y003129D02*
X005509Y003129D01*
X005351Y003288D02*
X005872Y003288D01*
X006118Y003605D02*
X001651Y003605D01*
X002943Y005349D02*
X004346Y005349D01*
X005173Y005032D02*
X005424Y005032D01*
X005457Y004873D02*
X005173Y004873D01*
X005173Y004715D02*
X005571Y004715D01*
X005679Y004556D02*
X005173Y004556D01*
X005173Y004398D02*
X005787Y004398D01*
X006128Y004715D02*
X010719Y004715D01*
X010719Y004739D02*
X011175Y004739D01*
X011175Y004776D01*
X010719Y004776D01*
X010719Y005127D01*
X010824Y005233D01*
X011176Y005233D01*
X011176Y004776D01*
X011212Y004776D01*
X011212Y005233D01*
X011564Y005233D01*
X011669Y005127D01*
X011669Y004776D01*
X011213Y004776D01*
X011213Y004739D01*
X011669Y004739D01*
X011669Y004387D01*
X011564Y004282D01*
X011212Y004282D01*
X011212Y004739D01*
X011176Y004739D01*
X011176Y004282D01*
X010824Y004282D01*
X010719Y004387D01*
X010719Y004739D01*
X010719Y004873D02*
X006020Y004873D01*
X005912Y005032D02*
X007535Y005032D01*
X007191Y005190D02*
X006440Y005190D01*
X006442Y005349D02*
X006846Y005349D01*
X006502Y005508D02*
X006442Y005508D01*
X006144Y005701D02*
X006166Y006281D01*
X005757Y006494D01*
X003103Y007049D01*
X003111Y007049D01*
X003174Y007029D01*
X002080Y007336D01*
X002099Y008525D01*
X002346Y007727D02*
X002454Y007727D01*
X002344Y007569D02*
X004346Y007569D01*
X004346Y007727D02*
X003769Y007727D01*
X003891Y007886D02*
X004346Y007886D01*
X004346Y007748D02*
X004644Y007748D01*
X004644Y007748D01*
X004346Y007748D01*
X004346Y008044D02*
X003891Y008044D01*
X003891Y008203D02*
X004346Y008203D01*
X004644Y008203D02*
X004644Y008203D01*
X004644Y008044D02*
X004644Y008044D01*
X004644Y007886D02*
X004644Y007886D01*
X004644Y007747D02*
X004644Y007135D01*
X004644Y007747D01*
X004644Y007747D01*
X004644Y007727D02*
X004644Y007727D01*
X004644Y007569D02*
X004644Y007569D01*
X004644Y007410D02*
X004644Y007410D01*
X004644Y007252D02*
X004644Y007252D01*
X004346Y007252D02*
X003887Y007252D01*
X003729Y007410D02*
X004346Y007410D01*
X004161Y007093D02*
X005959Y007093D01*
X005957Y006934D02*
X004919Y006934D01*
X005350Y006300D02*
X005411Y006300D01*
X005677Y006776D02*
X005955Y006776D01*
X004901Y008361D02*
X003971Y008361D01*
X004373Y008520D02*
X004815Y008520D01*
X004799Y008678D02*
X004482Y008678D01*
X004505Y008837D02*
X004841Y008837D01*
X004964Y008996D02*
X004458Y008996D01*
X004280Y009154D02*
X005985Y009154D01*
X005629Y008996D02*
X005519Y008996D01*
X004127Y008809D02*
X003103Y008025D01*
X003111Y008049D01*
X003659Y006617D02*
X003895Y006617D01*
X006236Y004556D02*
X010719Y004556D01*
X010719Y004398D02*
X006343Y004398D01*
X006451Y004239D02*
X012186Y004239D01*
X012279Y004081D02*
X006708Y004081D01*
X006927Y003922D02*
X012372Y003922D01*
X012465Y003764D02*
X006997Y003764D01*
X007003Y003605D02*
X012557Y003605D01*
X012343Y003446D02*
X006950Y003446D01*
X006871Y003315D02*
X007375Y003315D01*
X007663Y003376D01*
X007691Y003404D01*
X007973Y003404D01*
X008059Y003318D01*
X008070Y003329D01*
X008468Y003329D01*
X008749Y003047D01*
X008749Y002050D01*
X008468Y001769D01*
X008070Y001769D01*
X007789Y002050D01*
X007789Y002584D01*
X007701Y002689D01*
X007520Y002651D01*
X007520Y002628D01*
X007476Y002584D01*
X007520Y002541D01*
X007520Y002268D01*
X007161Y002268D01*
X007161Y002231D01*
X007124Y002231D01*
X007124Y002268D01*
X006766Y002268D01*
X006766Y002541D01*
X006810Y002584D01*
X006766Y002628D01*
X006766Y003210D01*
X006871Y003315D01*
X006766Y003129D02*
X006509Y003129D01*
X006591Y002971D02*
X006766Y002971D01*
X006766Y002812D02*
X006591Y002812D01*
X006591Y002654D02*
X006766Y002654D01*
X006766Y002495D02*
X006591Y002495D01*
X006591Y002337D02*
X006766Y002337D01*
X006766Y002231D02*
X007124Y002231D01*
X007124Y001853D01*
X006871Y001853D01*
X006766Y001958D01*
X006766Y002231D01*
X006766Y002178D02*
X006591Y002178D01*
X006561Y002020D02*
X006766Y002020D01*
X006863Y001861D02*
X006403Y001861D01*
X007124Y001861D02*
X007161Y001861D01*
X007161Y001853D02*
X007161Y002231D01*
X007520Y002231D01*
X007520Y001958D01*
X007414Y001853D01*
X007161Y001853D01*
X007161Y002020D02*
X007124Y002020D01*
X007124Y002178D02*
X007161Y002178D01*
X007520Y002178D02*
X007789Y002178D01*
X007789Y002337D02*
X007520Y002337D01*
X007520Y002495D02*
X007789Y002495D01*
X007731Y002654D02*
X007533Y002654D01*
X007520Y002020D02*
X007819Y002020D01*
X007978Y001861D02*
X007422Y001861D01*
X008560Y001861D02*
X008978Y001861D01*
X009070Y001769D02*
X008789Y002050D01*
X008789Y003047D01*
X009070Y003329D01*
X009468Y003329D01*
X009749Y003047D01*
X009749Y002050D01*
X009468Y001769D01*
X009070Y001769D01*
X008819Y002020D02*
X008719Y002020D01*
X008749Y002178D02*
X008789Y002178D01*
X008789Y002337D02*
X008749Y002337D01*
X008749Y002495D02*
X008789Y002495D01*
X008789Y002654D02*
X008749Y002654D01*
X008749Y002812D02*
X008789Y002812D01*
X008789Y002971D02*
X008749Y002971D01*
X008667Y003129D02*
X008871Y003129D01*
X009029Y003288D02*
X008508Y003288D01*
X009508Y003288D02*
X010029Y003288D01*
X010070Y003329D02*
X009789Y003047D01*
X009789Y002050D01*
X010070Y001769D01*
X010468Y001769D01*
X010749Y002050D01*
X010749Y003047D01*
X010468Y003329D01*
X010070Y003329D01*
X009871Y003129D02*
X009667Y003129D01*
X009749Y002971D02*
X009789Y002971D01*
X009789Y002812D02*
X009749Y002812D01*
X009749Y002654D02*
X009789Y002654D01*
X009789Y002495D02*
X009749Y002495D01*
X009749Y002337D02*
X009789Y002337D01*
X009789Y002178D02*
X009749Y002178D01*
X009719Y002020D02*
X009819Y002020D01*
X009978Y001861D02*
X009560Y001861D01*
X010560Y001861D02*
X010978Y001861D01*
X010819Y002020D02*
X010719Y002020D01*
X010749Y002178D02*
X010789Y002178D01*
X010789Y002337D02*
X010749Y002337D01*
X010749Y002495D02*
X010789Y002495D01*
X010789Y002654D02*
X010749Y002654D01*
X010749Y002812D02*
X010789Y002812D01*
X010789Y002971D02*
X010749Y002971D01*
X010667Y003129D02*
X010871Y003129D01*
X011029Y003288D02*
X010508Y003288D01*
X011508Y003288D02*
X012282Y003288D01*
X012282Y003129D02*
X011667Y003129D01*
X011749Y002971D02*
X012282Y002971D01*
X012312Y002812D02*
X011749Y002812D01*
X011749Y002654D02*
X012282Y002654D01*
X012282Y002495D02*
X011749Y002495D01*
X011749Y002337D02*
X012282Y002337D01*
X012282Y002178D02*
X011749Y002178D01*
X012660Y002178D02*
X012697Y002178D01*
X012697Y002337D02*
X012660Y002337D01*
X013013Y003446D02*
X013405Y003446D01*
X012093Y004398D02*
X011669Y004398D01*
X011669Y004556D02*
X012001Y004556D01*
X011908Y004715D02*
X011669Y004715D01*
X011669Y004873D02*
X011815Y004873D01*
X011728Y005032D02*
X011669Y005032D01*
X011678Y005190D02*
X011606Y005190D01*
X011212Y005190D02*
X011176Y005190D01*
X011176Y005032D02*
X011212Y005032D01*
X011212Y004873D02*
X011176Y004873D01*
X011176Y004715D02*
X011212Y004715D01*
X011212Y004556D02*
X011176Y004556D01*
X011176Y004398D02*
X011212Y004398D01*
X010719Y005032D02*
X009568Y005032D01*
X010235Y005190D02*
X010782Y005190D01*
X012472Y005666D02*
X012628Y005666D01*
X012712Y005508D02*
X012525Y005508D01*
X001966Y011374D02*
X001655Y011374D01*
X001655Y011532D02*
X001914Y011532D01*
X001923Y011691D02*
X001655Y011691D01*
X001655Y011849D02*
X002003Y011849D01*
X002001Y012325D02*
X001655Y012325D01*
X001655Y012483D02*
X001906Y012483D01*
X001886Y012642D02*
X001655Y012642D01*
X001655Y012801D02*
X001928Y012801D01*
X002054Y012959D02*
X001655Y012959D01*
X001655Y013118D02*
X002050Y013118D01*
X001927Y013276D02*
X001655Y013276D01*
X001655Y013435D02*
X001886Y013435D01*
X001907Y013593D02*
X001656Y013593D01*
X001656Y013752D02*
X002004Y013752D01*
D11*
X004644Y007748D03*
X005144Y007748D03*
X005644Y007748D03*
X006144Y007748D03*
X006144Y005701D03*
X005644Y005701D03*
X005144Y005701D03*
X004644Y005701D03*
D12*
X002599Y005084D03*
X002599Y004084D03*
X008312Y006123D03*
X008312Y007123D03*
X008444Y008356D03*
X008444Y009356D03*
D13*
X014651Y017549D03*
X015639Y017529D03*
D14*
X010521Y008753D03*
X010521Y007753D03*
X010521Y006753D03*
D15*
X009300Y006927D03*
X009300Y006257D03*
X007143Y002919D03*
X007143Y002249D03*
D16*
X013182Y017076D03*
X013182Y018805D03*
D17*
X017115Y017549D03*
X018115Y017549D03*
D18*
X010820Y016529D03*
X009820Y016529D03*
X008820Y016529D03*
X009127Y017856D03*
X008127Y017856D03*
X007127Y017856D03*
X006127Y017856D03*
X005820Y016529D03*
X006820Y016529D03*
X004820Y016529D03*
X003820Y016529D03*
D19*
X004060Y019509D03*
X004698Y019521D03*
X011194Y019521D03*
X011194Y004757D03*
X011186Y004116D03*
X004698Y004757D03*
X004017Y004080D03*
D20*
X002611Y017551D03*
X002611Y019549D03*
D21*
X002785Y014257D03*
X005241Y008647D03*
X005914Y008655D03*
X008320Y010438D03*
X009017Y010450D03*
X010036Y010293D03*
X012178Y007379D03*
X011446Y005974D03*
X014099Y004127D03*
X014517Y002464D03*
X012989Y009096D03*
X013840Y010738D03*
X009796Y015135D03*
X013044Y015675D03*
X013993Y019612D03*
X002462Y006155D03*
X006560Y003663D03*
D22*
X015974Y004320D02*
X015977Y004377D01*
X015984Y004433D01*
X015997Y004489D01*
X016015Y004543D01*
X016038Y004595D01*
X016065Y004645D01*
X016097Y004692D01*
X016133Y004736D01*
X016172Y004777D01*
X016216Y004814D01*
X016262Y004846D01*
X016311Y004875D01*
X016363Y004899D01*
X016417Y004918D01*
X016472Y004932D01*
X016528Y004941D01*
X016585Y004945D01*
X016642Y004944D01*
X016698Y004937D01*
X016754Y004926D01*
X016808Y004909D01*
X016861Y004887D01*
X016911Y004861D01*
X016959Y004831D01*
X017004Y004796D01*
X017046Y004757D01*
X017084Y004714D01*
X017118Y004669D01*
X017147Y004620D01*
X017172Y004569D01*
X017193Y004516D01*
X017208Y004461D01*
X017218Y004405D01*
X017223Y004348D01*
X017223Y004292D01*
X017218Y004235D01*
X017208Y004179D01*
X017193Y004124D01*
X017172Y004071D01*
X017147Y004020D01*
X017118Y003971D01*
X017084Y003926D01*
X017046Y003883D01*
X017004Y003844D01*
X016959Y003809D01*
X016912Y003779D01*
X016861Y003753D01*
X016808Y003731D01*
X016754Y003714D01*
X016698Y003703D01*
X016642Y003696D01*
X016585Y003695D01*
X016528Y003699D01*
X016472Y003708D01*
X016417Y003722D01*
X016363Y003741D01*
X016311Y003765D01*
X016262Y003794D01*
X016216Y003826D01*
X016172Y003863D01*
X016133Y003904D01*
X016097Y003948D01*
X016065Y003995D01*
X016038Y004045D01*
X016015Y004097D01*
X015997Y004151D01*
X015984Y004207D01*
X015977Y004263D01*
X015974Y004320D01*
X015974Y008820D02*
X015977Y008877D01*
X015984Y008933D01*
X015997Y008989D01*
X016015Y009043D01*
X016038Y009095D01*
X016065Y009145D01*
X016097Y009192D01*
X016133Y009236D01*
X016172Y009277D01*
X016216Y009314D01*
X016262Y009346D01*
X016311Y009375D01*
X016363Y009399D01*
X016417Y009418D01*
X016472Y009432D01*
X016528Y009441D01*
X016585Y009445D01*
X016642Y009444D01*
X016698Y009437D01*
X016754Y009426D01*
X016808Y009409D01*
X016861Y009387D01*
X016911Y009361D01*
X016959Y009331D01*
X017004Y009296D01*
X017046Y009257D01*
X017084Y009214D01*
X017118Y009169D01*
X017147Y009120D01*
X017172Y009069D01*
X017193Y009016D01*
X017208Y008961D01*
X017218Y008905D01*
X017223Y008848D01*
X017223Y008792D01*
X017218Y008735D01*
X017208Y008679D01*
X017193Y008624D01*
X017172Y008571D01*
X017147Y008520D01*
X017118Y008471D01*
X017084Y008426D01*
X017046Y008383D01*
X017004Y008344D01*
X016959Y008309D01*
X016912Y008279D01*
X016861Y008253D01*
X016808Y008231D01*
X016754Y008214D01*
X016698Y008203D01*
X016642Y008196D01*
X016585Y008195D01*
X016528Y008199D01*
X016472Y008208D01*
X016417Y008222D01*
X016363Y008241D01*
X016311Y008265D01*
X016262Y008294D01*
X016216Y008326D01*
X016172Y008363D01*
X016133Y008404D01*
X016097Y008448D01*
X016065Y008495D01*
X016038Y008545D01*
X016015Y008597D01*
X015997Y008651D01*
X015984Y008707D01*
X015977Y008763D01*
X015974Y008820D01*
X015911Y010950D02*
X015914Y011007D01*
X015921Y011063D01*
X015934Y011119D01*
X015952Y011173D01*
X015975Y011225D01*
X016002Y011275D01*
X016034Y011322D01*
X016070Y011366D01*
X016109Y011407D01*
X016153Y011444D01*
X016199Y011476D01*
X016248Y011505D01*
X016300Y011529D01*
X016354Y011548D01*
X016409Y011562D01*
X016465Y011571D01*
X016522Y011575D01*
X016579Y011574D01*
X016635Y011567D01*
X016691Y011556D01*
X016745Y011539D01*
X016798Y011517D01*
X016848Y011491D01*
X016896Y011461D01*
X016941Y011426D01*
X016983Y011387D01*
X017021Y011344D01*
X017055Y011299D01*
X017084Y011250D01*
X017109Y011199D01*
X017130Y011146D01*
X017145Y011091D01*
X017155Y011035D01*
X017160Y010978D01*
X017160Y010922D01*
X017155Y010865D01*
X017145Y010809D01*
X017130Y010754D01*
X017109Y010701D01*
X017084Y010650D01*
X017055Y010601D01*
X017021Y010556D01*
X016983Y010513D01*
X016941Y010474D01*
X016896Y010439D01*
X016849Y010409D01*
X016798Y010383D01*
X016745Y010361D01*
X016691Y010344D01*
X016635Y010333D01*
X016579Y010326D01*
X016522Y010325D01*
X016465Y010329D01*
X016409Y010338D01*
X016354Y010352D01*
X016300Y010371D01*
X016248Y010395D01*
X016199Y010424D01*
X016153Y010456D01*
X016109Y010493D01*
X016070Y010534D01*
X016034Y010578D01*
X016002Y010625D01*
X015975Y010675D01*
X015952Y010727D01*
X015934Y010781D01*
X015921Y010837D01*
X015914Y010893D01*
X015911Y010950D01*
X015911Y015450D02*
X015914Y015507D01*
X015921Y015563D01*
X015934Y015619D01*
X015952Y015673D01*
X015975Y015725D01*
X016002Y015775D01*
X016034Y015822D01*
X016070Y015866D01*
X016109Y015907D01*
X016153Y015944D01*
X016199Y015976D01*
X016248Y016005D01*
X016300Y016029D01*
X016354Y016048D01*
X016409Y016062D01*
X016465Y016071D01*
X016522Y016075D01*
X016579Y016074D01*
X016635Y016067D01*
X016691Y016056D01*
X016745Y016039D01*
X016798Y016017D01*
X016848Y015991D01*
X016896Y015961D01*
X016941Y015926D01*
X016983Y015887D01*
X017021Y015844D01*
X017055Y015799D01*
X017084Y015750D01*
X017109Y015699D01*
X017130Y015646D01*
X017145Y015591D01*
X017155Y015535D01*
X017160Y015478D01*
X017160Y015422D01*
X017155Y015365D01*
X017145Y015309D01*
X017130Y015254D01*
X017109Y015201D01*
X017084Y015150D01*
X017055Y015101D01*
X017021Y015056D01*
X016983Y015013D01*
X016941Y014974D01*
X016896Y014939D01*
X016849Y014909D01*
X016798Y014883D01*
X016745Y014861D01*
X016691Y014844D01*
X016635Y014833D01*
X016579Y014826D01*
X016522Y014825D01*
X016465Y014829D01*
X016409Y014838D01*
X016354Y014852D01*
X016300Y014871D01*
X016248Y014895D01*
X016199Y014924D01*
X016153Y014956D01*
X016109Y014993D01*
X016070Y015034D01*
X016034Y015078D01*
X016002Y015125D01*
X015975Y015175D01*
X015952Y015227D01*
X015934Y015281D01*
X015921Y015337D01*
X015914Y015393D01*
X015911Y015450D01*
D23*
X014036Y014950D03*
X014036Y013950D03*
X014036Y012950D03*
X014036Y011950D03*
X013036Y011450D03*
X013036Y012450D03*
X013036Y013450D03*
X013036Y014450D03*
X014099Y008320D03*
X014099Y007320D03*
X014099Y006320D03*
X014099Y005320D03*
X013099Y004820D03*
X013099Y005820D03*
X013099Y006820D03*
X013099Y007820D03*
D24*
X009599Y011244D03*
X009599Y012247D03*
X009603Y013251D03*
X009603Y014255D03*
X005820Y014255D03*
X005820Y013251D03*
X005828Y012251D03*
X005820Y011244D03*
D25*
X012678Y003114D03*
X012678Y002444D03*
D26*
X011269Y002549D03*
X010269Y002549D03*
X009269Y002549D03*
X008269Y002549D03*
X006111Y002549D03*
X005111Y002549D03*
X004111Y002549D03*
X003111Y002549D03*
X015609Y002551D03*
X016609Y002551D03*
X017609Y002551D03*
X018609Y002551D03*
X018615Y019547D03*
X017615Y019547D03*
X016615Y019547D03*
X015615Y019547D03*
D27*
X003111Y008049D03*
X003111Y007049D03*
D28*
X005820Y011244D02*
X006383Y011391D01*
X004942Y011820D02*
X005009Y012261D01*
X005009Y012271D01*
X005127Y012848D02*
X004950Y013179D01*
X004949Y013251D01*
X005820Y014255D02*
X005690Y014470D01*
X006592Y013852D02*
X006946Y013836D01*
X005690Y016163D02*
X005820Y016529D01*
X008127Y017856D02*
X008088Y017997D01*
X009572Y014462D02*
X009533Y014423D01*
X009603Y014255D01*
X009552Y014253D01*
X009887Y014253D01*
X009950Y013868D01*
X009603Y013251D02*
X009552Y013257D01*
X009887Y012883D01*
X009477Y012616D02*
X009599Y012247D01*
X009627Y012234D01*
X012564Y012454D02*
X012954Y012690D01*
X013371Y012651D01*
X013706Y012494D01*
X014178Y012494D01*
X014414Y012257D01*
X014435Y012238D01*
X014454Y012257D01*
X014474Y012188D01*
X014466Y012207D02*
X014435Y012238D01*
X015123Y012218D02*
X015126Y012246D01*
X015123Y012297D01*
X015123Y012218D02*
X015123Y012191D01*
X013531Y012352D02*
X013470Y012336D01*
X013509Y012336D01*
X013470Y012336D02*
X013351Y012336D01*
X013182Y017076D02*
X013706Y017415D01*
X013706Y018399D02*
X013182Y018805D01*
X012682Y018990D01*
X011540Y018990D01*
X009568Y007470D02*
X009533Y007415D01*
X009651Y007143D01*
X009407Y007131D02*
X009300Y006927D01*
X009324Y007147D01*
X009300Y006257D02*
X009166Y006120D01*
X009300Y006120D02*
X009300Y006257D01*
X010182Y006679D02*
X010521Y006753D01*
X012722Y006942D02*
X012800Y006942D01*
X012800Y005879D02*
X013099Y005820D01*
X013785Y005210D02*
X014099Y005320D01*
X013785Y005210D02*
X013548Y004974D01*
X012879Y003045D02*
X012678Y003114D01*
X012879Y003045D02*
X013194Y003045D01*
X012879Y002454D02*
X012678Y002444D01*
X012485Y002612D01*
X011855Y002612D01*
X011816Y002604D01*
X011749Y002600D01*
X011792Y002606D02*
X011855Y002612D01*
X012879Y002454D02*
X014257Y002454D01*
X014517Y002464D01*
D29*
X002887Y015151D03*
X002300Y015431D03*
X001993Y014907D03*
X002757Y015879D03*
X002312Y013458D03*
X002312Y012616D03*
X002340Y011584D03*
D30*
X004942Y011820D03*
X005127Y012848D03*
X006946Y013836D03*
X009477Y012616D03*
X009887Y012883D03*
X009950Y013868D03*
X013194Y003045D03*
D31*
X011103Y012234D02*
X011525Y012368D01*
D32*
X011525Y012368D03*
X004127Y008809D03*
X003859Y005801D03*
D33*
X007143Y002919D02*
X007832Y003064D01*
X008253Y002557D01*
X008269Y002549D01*
X009966Y008911D02*
X010521Y008753D01*
X009966Y008911D02*
X008981Y008911D01*
X008666Y009226D01*
X008444Y009356D01*
X013706Y017415D02*
X014336Y017415D01*
X014651Y017549D01*
D34*
X010859Y017297D02*
X010257Y019041D01*
X008611Y019021D01*
X008088Y017997D01*
D35*
X003497Y013072D03*
X004096Y012293D03*
X002324Y009655D03*
D36*
X005155Y008198D02*
X005144Y007748D01*
X005155Y008198D02*
X005225Y008403D01*
X005241Y008647D01*
X005639Y008348D02*
X005914Y008655D01*
X005639Y008348D02*
X005644Y007748D01*
X005644Y005701D02*
X005655Y005001D01*
X006568Y003659D01*
X006560Y003663D01*
X005690Y014470D02*
X005690Y016163D01*
M02*
