G75*
G70*
%OFA0B0*%
%FSLAX24Y24*%
%IPPOS*%
%LPD*%
%AMOC8*
5,1,8,0,0,1.08239X$1,22.5*
%
%ADD10C,0.0160*%
%ADD11OC8,0.0500*%
%ADD12C,0.0650*%
%ADD13O,0.1181X0.0591*%
%ADD14OC8,0.0630*%
%ADD15O,0.0480X0.0960*%
%ADD16R,0.0591X0.0591*%
%ADD17OC8,0.0600*%
%ADD18C,0.0525*%
%ADD19C,0.0000*%
%ADD20C,0.0630*%
%ADD21R,0.0591X0.0866*%
%ADD22R,0.0394X0.0433*%
%ADD23R,0.0866X0.0591*%
%ADD24O,0.0600X0.1200*%
%ADD25O,0.1200X0.0600*%
%ADD26R,0.0866X0.0236*%
%ADD27C,0.0320*%
%ADD28C,0.0531*%
%ADD29C,0.0080*%
%ADD30C,0.0396*%
%ADD31C,0.0436*%
%ADD32C,0.0100*%
%ADD33C,0.0240*%
%ADD34C,0.0500*%
%ADD35C,0.0400*%
%ADD36C,0.0120*%
%ADD37OC8,0.0436*%
D10*
X001048Y001060D02*
X001040Y020761D01*
X019162Y020761D01*
X019170Y001064D01*
X001048Y001064D01*
X001765Y007171D02*
X006288Y006776D01*
X006383Y006815D01*
X006580Y006815D01*
X006673Y006777D01*
X006986Y006881D01*
X006986Y006919D01*
X007062Y007101D01*
X007201Y007240D01*
X007383Y007315D01*
X007580Y007315D01*
X007762Y007240D01*
X007837Y007165D01*
X007991Y007216D01*
X007960Y007291D01*
X007960Y007467D01*
X008027Y007630D01*
X008081Y007684D01*
X008087Y009722D01*
X006916Y009722D01*
X006713Y009722D01*
X006700Y009722D01*
X006632Y009790D01*
X005752Y010533D01*
X005740Y010533D01*
X005671Y010601D01*
X005629Y010644D01*
X005587Y010685D01*
X005587Y010797D01*
X005587Y010797D01*
X005587Y010900D01*
X005591Y010904D01*
X005666Y013446D01*
X005666Y013550D01*
X005818Y013702D01*
X005818Y013702D01*
X005931Y013702D01*
X006111Y013703D01*
X006049Y013852D01*
X006049Y013925D01*
X006519Y013925D01*
X006519Y013975D01*
X006049Y013975D01*
X006049Y014049D01*
X006125Y014231D01*
X006264Y014370D01*
X006446Y014445D01*
X006519Y014445D01*
X006519Y013975D01*
X006569Y013975D01*
X007039Y013975D01*
X007039Y014049D01*
X006964Y014231D01*
X006825Y014370D01*
X006643Y014445D01*
X006569Y014445D01*
X006569Y013975D01*
X006569Y013925D01*
X007039Y013925D01*
X007039Y013852D01*
X006979Y013707D01*
X007109Y013708D01*
X007115Y013708D01*
X007125Y013731D01*
X007264Y013870D01*
X007446Y013945D01*
X007643Y013945D01*
X007825Y013870D01*
X007964Y013731D01*
X007970Y013716D01*
X008162Y013718D01*
X008296Y014155D01*
X008351Y014958D01*
X008040Y015647D01*
X007769Y016293D01*
X006127Y016434D01*
X004867Y016836D01*
X004228Y017142D01*
X003759Y017142D01*
X003671Y017054D01*
X003260Y017054D01*
X002971Y017344D01*
X002971Y017754D01*
X003260Y018044D01*
X003315Y018044D01*
X003249Y018120D01*
X002466Y018139D01*
X001946Y018013D01*
X001654Y017183D01*
X001749Y014801D01*
X001765Y007171D01*
X001765Y007252D02*
X005986Y007252D01*
X005986Y007222D02*
X006062Y007040D01*
X006201Y006901D01*
X006383Y006825D01*
X006456Y006825D01*
X006456Y007295D01*
X006506Y007295D01*
X006506Y006825D01*
X006580Y006825D01*
X006762Y006901D01*
X006901Y007040D01*
X006976Y007222D01*
X006976Y007295D01*
X006506Y007295D01*
X006506Y007345D01*
X006976Y007345D01*
X006976Y007419D01*
X006901Y007601D01*
X006762Y007740D01*
X006580Y007815D01*
X006506Y007815D01*
X006506Y007346D01*
X006456Y007346D01*
X006456Y007815D01*
X006383Y007815D01*
X006201Y007740D01*
X006062Y007601D01*
X005986Y007419D01*
X005986Y007345D01*
X006456Y007345D01*
X006456Y007295D01*
X005986Y007295D01*
X005986Y007222D01*
X006040Y007093D02*
X002655Y007093D01*
X001764Y007410D02*
X005986Y007410D01*
X006048Y007569D02*
X001764Y007569D01*
X001764Y007727D02*
X006188Y007727D01*
X006237Y007886D02*
X001763Y007886D01*
X001763Y008044D02*
X003803Y008044D01*
X003825Y008035D02*
X004137Y008035D01*
X004426Y008155D01*
X004647Y008376D01*
X004766Y008664D01*
X004766Y008976D01*
X004647Y009265D01*
X004426Y009486D01*
X004137Y009605D01*
X003825Y009605D01*
X003537Y009486D01*
X003316Y009265D01*
X003196Y008976D01*
X003196Y008664D01*
X003316Y008376D01*
X003537Y008155D01*
X003825Y008035D01*
X004159Y008044D02*
X006060Y008044D01*
X006062Y008040D02*
X006201Y007901D01*
X006383Y007825D01*
X006580Y007825D01*
X006762Y007901D01*
X006901Y008040D01*
X006976Y008222D01*
X006976Y008419D01*
X006901Y008601D01*
X006762Y008740D01*
X006580Y008815D01*
X006383Y008815D01*
X006201Y008740D01*
X006062Y008601D01*
X005986Y008419D01*
X005986Y008222D01*
X006062Y008040D01*
X005994Y008203D02*
X004474Y008203D01*
X004632Y008361D02*
X005986Y008361D01*
X006028Y008520D02*
X004706Y008520D01*
X004766Y008678D02*
X006139Y008678D01*
X006823Y008678D02*
X007443Y008678D01*
X007503Y008653D02*
X007680Y008653D01*
X007842Y008721D01*
X007967Y008845D01*
X008034Y009008D01*
X008034Y009184D01*
X007967Y009347D01*
X007842Y009471D01*
X007680Y009538D01*
X007503Y009538D01*
X007341Y009471D01*
X007216Y009347D01*
X007149Y009184D01*
X007149Y009008D01*
X007216Y008845D01*
X007341Y008721D01*
X007503Y008653D01*
X007740Y008678D02*
X008084Y008678D01*
X008083Y008520D02*
X006934Y008520D01*
X006976Y008361D02*
X008083Y008361D01*
X008082Y008203D02*
X007799Y008203D01*
X007762Y008240D02*
X007580Y008315D01*
X007506Y008315D01*
X007506Y007846D01*
X007456Y007846D01*
X007456Y008315D01*
X007383Y008315D01*
X007201Y008240D01*
X007062Y008101D01*
X006986Y007919D01*
X006986Y007845D01*
X007456Y007845D01*
X007456Y007795D01*
X007506Y007795D01*
X007506Y007325D01*
X007580Y007325D01*
X007762Y007401D01*
X007901Y007540D01*
X007976Y007722D01*
X007976Y007795D01*
X007506Y007795D01*
X007506Y007845D01*
X007976Y007845D01*
X007976Y007919D01*
X007901Y008101D01*
X007762Y008240D01*
X007924Y008044D02*
X008082Y008044D01*
X008082Y007886D02*
X007976Y007886D01*
X007976Y007727D02*
X008081Y007727D01*
X008002Y007569D02*
X007913Y007569D01*
X007960Y007410D02*
X007771Y007410D01*
X007734Y007252D02*
X007976Y007252D01*
X008403Y007379D02*
X008399Y007588D01*
X008383Y007966D01*
X008410Y009982D01*
X006808Y009982D01*
X005847Y010793D01*
X005926Y013442D01*
X007544Y013450D01*
X007146Y013752D02*
X006998Y013752D01*
X007039Y013910D02*
X007362Y013910D01*
X007446Y013955D02*
X007264Y014031D01*
X007125Y014170D01*
X007049Y014352D01*
X007049Y014425D01*
X007519Y014425D01*
X007569Y014425D01*
X007569Y013955D01*
X007643Y013955D01*
X007825Y014031D01*
X007964Y014170D01*
X008039Y014352D01*
X008039Y014425D01*
X007569Y014425D01*
X007569Y014475D01*
X008039Y014475D01*
X008039Y014549D01*
X007964Y014731D01*
X007825Y014870D01*
X007643Y014945D01*
X007569Y014945D01*
X007569Y014475D01*
X007519Y014475D01*
X007519Y014425D01*
X007519Y013955D01*
X007446Y013955D01*
X007519Y014069D02*
X007569Y014069D01*
X007569Y014227D02*
X007519Y014227D01*
X007519Y014386D02*
X007569Y014386D01*
X007519Y014475D02*
X007049Y014475D01*
X007049Y014549D01*
X007125Y014731D01*
X007264Y014870D01*
X007446Y014945D01*
X007519Y014945D01*
X007519Y014475D01*
X007519Y014545D02*
X007569Y014545D01*
X007569Y014703D02*
X007519Y014703D01*
X007519Y014862D02*
X007569Y014862D01*
X007256Y014862D02*
X007039Y014862D01*
X007039Y014852D02*
X007039Y015049D01*
X006964Y015231D01*
X006825Y015370D01*
X006643Y015445D01*
X006446Y015445D01*
X006264Y015370D01*
X006125Y015231D01*
X006049Y015049D01*
X006049Y014852D01*
X006125Y014670D01*
X006264Y014531D01*
X006446Y014455D01*
X006643Y014455D01*
X006825Y014531D01*
X006964Y014670D01*
X007039Y014852D01*
X006978Y014703D02*
X007113Y014703D01*
X007049Y014545D02*
X006839Y014545D01*
X006786Y014386D02*
X007049Y014386D01*
X007101Y014227D02*
X006965Y014227D01*
X007031Y014069D02*
X007226Y014069D01*
X007727Y013910D02*
X008221Y013910D01*
X008173Y013752D02*
X007943Y013752D01*
X007863Y014069D02*
X008270Y014069D01*
X008301Y014227D02*
X007988Y014227D01*
X008039Y014386D02*
X008312Y014386D01*
X008323Y014545D02*
X008039Y014545D01*
X007975Y014703D02*
X008334Y014703D01*
X008345Y014862D02*
X007833Y014862D01*
X007624Y015232D02*
X007448Y015232D01*
X007286Y015299D01*
X007161Y015424D01*
X007094Y015587D01*
X007094Y015763D01*
X007161Y015925D01*
X007286Y016050D01*
X007448Y016117D01*
X007624Y016117D01*
X007787Y016050D01*
X007911Y015925D01*
X007979Y015763D01*
X007979Y015587D01*
X007911Y015424D01*
X007787Y015299D01*
X007624Y015232D01*
X007825Y015337D02*
X008180Y015337D01*
X008252Y015179D02*
X006985Y015179D01*
X007039Y015020D02*
X008323Y015020D01*
X008109Y015496D02*
X007941Y015496D01*
X007979Y015654D02*
X008037Y015654D01*
X007971Y015813D02*
X007958Y015813D01*
X007904Y015971D02*
X007865Y015971D01*
X007837Y016130D02*
X004454Y016130D01*
X004489Y016116D02*
X004200Y016235D01*
X003888Y016235D01*
X003600Y016116D01*
X003379Y015895D01*
X003259Y015606D01*
X003259Y015294D01*
X003379Y015006D01*
X003600Y014785D01*
X003888Y014665D01*
X004200Y014665D01*
X004489Y014785D01*
X004710Y015006D01*
X004829Y015294D01*
X004829Y015606D01*
X004710Y015895D01*
X004489Y016116D01*
X004633Y015971D02*
X007207Y015971D01*
X007115Y015813D02*
X004744Y015813D01*
X004809Y015654D02*
X007094Y015654D01*
X007131Y015496D02*
X004829Y015496D01*
X004829Y015337D02*
X006231Y015337D01*
X006103Y015179D02*
X004781Y015179D01*
X004716Y015020D02*
X006049Y015020D01*
X006049Y014862D02*
X004566Y014862D01*
X004292Y014703D02*
X006111Y014703D01*
X006250Y014545D02*
X001750Y014545D01*
X001749Y014703D02*
X003797Y014703D01*
X003523Y014862D02*
X001747Y014862D01*
X001740Y015020D02*
X003373Y015020D01*
X003307Y015179D02*
X001734Y015179D01*
X001728Y015337D02*
X003259Y015337D01*
X003259Y015496D02*
X001721Y015496D01*
X001715Y015654D02*
X003279Y015654D01*
X003345Y015813D02*
X001709Y015813D01*
X001703Y015971D02*
X003455Y015971D01*
X003634Y016130D02*
X001696Y016130D01*
X001690Y016289D02*
X007770Y016289D01*
X007248Y015337D02*
X006857Y015337D01*
X006569Y014386D02*
X006519Y014386D01*
X006519Y014227D02*
X006569Y014227D01*
X006569Y014069D02*
X006519Y014069D01*
X006303Y014386D02*
X001750Y014386D01*
X001750Y014227D02*
X006123Y014227D01*
X006058Y014069D02*
X001751Y014069D01*
X001751Y013910D02*
X006049Y013910D01*
X006091Y013752D02*
X001751Y013752D01*
X001751Y013593D02*
X005709Y013593D01*
X005666Y013435D02*
X001752Y013435D01*
X001752Y013276D02*
X005661Y013276D01*
X005656Y013118D02*
X001752Y013118D01*
X001753Y012959D02*
X005652Y012959D01*
X005647Y012801D02*
X001753Y012801D01*
X001753Y012642D02*
X005642Y012642D01*
X005638Y012483D02*
X001754Y012483D01*
X001754Y012325D02*
X005633Y012325D01*
X005628Y012166D02*
X001754Y012166D01*
X001755Y012008D02*
X005623Y012008D01*
X005619Y011849D02*
X001755Y011849D01*
X001755Y011691D02*
X003781Y011691D01*
X003888Y011735D02*
X003600Y011616D01*
X003379Y011395D01*
X003259Y011106D01*
X003259Y010794D01*
X003379Y010506D01*
X003600Y010285D01*
X003888Y010165D01*
X004200Y010165D01*
X004489Y010285D01*
X004710Y010506D01*
X004829Y010794D01*
X004829Y011106D01*
X004710Y011395D01*
X004489Y011616D01*
X004200Y011735D01*
X003888Y011735D01*
X003516Y011532D02*
X001756Y011532D01*
X001756Y011374D02*
X003370Y011374D01*
X003304Y011215D02*
X001756Y011215D01*
X001757Y011057D02*
X003259Y011057D01*
X003259Y010898D02*
X001757Y010898D01*
X001757Y010739D02*
X003282Y010739D01*
X003347Y010581D02*
X001758Y010581D01*
X001758Y010422D02*
X003462Y010422D01*
X003650Y010264D02*
X001758Y010264D01*
X001759Y010105D02*
X006259Y010105D01*
X006446Y009947D02*
X001759Y009947D01*
X001759Y009788D02*
X006634Y009788D01*
X007202Y009313D02*
X004599Y009313D01*
X004693Y009154D02*
X007149Y009154D01*
X007154Y008996D02*
X004758Y008996D01*
X004766Y008837D02*
X007225Y008837D01*
X007341Y009471D02*
X004441Y009471D01*
X004439Y010264D02*
X006071Y010264D01*
X005883Y010422D02*
X004627Y010422D01*
X004741Y010581D02*
X005691Y010581D01*
X005587Y010739D02*
X004807Y010739D01*
X004829Y010898D02*
X005587Y010898D01*
X005595Y011057D02*
X004829Y011057D01*
X004784Y011215D02*
X005600Y011215D01*
X005605Y011374D02*
X004719Y011374D01*
X004572Y011532D02*
X005609Y011532D01*
X005614Y011691D02*
X004308Y011691D01*
X003522Y009471D02*
X001760Y009471D01*
X001760Y009313D02*
X003363Y009313D01*
X003270Y009154D02*
X001761Y009154D01*
X001761Y008996D02*
X003204Y008996D01*
X003196Y008837D02*
X001761Y008837D01*
X001762Y008678D02*
X003196Y008678D01*
X003256Y008520D02*
X001762Y008520D01*
X001762Y008361D02*
X003330Y008361D01*
X003489Y008203D02*
X001763Y008203D01*
X001760Y009630D02*
X008087Y009630D01*
X008086Y009471D02*
X007842Y009471D01*
X007981Y009313D02*
X008086Y009313D01*
X008085Y009154D02*
X008034Y009154D01*
X008029Y008996D02*
X008085Y008996D01*
X008084Y008837D02*
X007958Y008837D01*
X007506Y008203D02*
X007456Y008203D01*
X007456Y008044D02*
X007506Y008044D01*
X007506Y007886D02*
X007456Y007886D01*
X007456Y007795D02*
X006986Y007795D01*
X006986Y007722D01*
X007062Y007540D01*
X007201Y007401D01*
X007383Y007325D01*
X007456Y007325D01*
X007456Y007795D01*
X007456Y007727D02*
X007506Y007727D01*
X007506Y007569D02*
X007456Y007569D01*
X007456Y007410D02*
X007506Y007410D01*
X007229Y007252D02*
X006976Y007252D01*
X006976Y007410D02*
X007191Y007410D01*
X007050Y007569D02*
X006914Y007569D01*
X006986Y007727D02*
X006774Y007727D01*
X006725Y007886D02*
X006986Y007886D01*
X007038Y008044D02*
X006903Y008044D01*
X006968Y008203D02*
X007164Y008203D01*
X006506Y007727D02*
X006456Y007727D01*
X006456Y007569D02*
X006506Y007569D01*
X006506Y007410D02*
X006456Y007410D01*
X006456Y007252D02*
X006506Y007252D01*
X006506Y007093D02*
X006456Y007093D01*
X006456Y006934D02*
X006506Y006934D01*
X006795Y006934D02*
X006993Y006934D01*
X007058Y007093D02*
X006923Y007093D01*
X006167Y006934D02*
X004472Y006934D01*
X006410Y006336D02*
X006481Y006320D01*
X006521Y006360D02*
X008442Y006285D01*
X008458Y006277D02*
X008792Y006395D01*
X008966Y007135D01*
X008910Y007545D01*
X008855Y011139D01*
X008906Y011907D01*
X009056Y012368D01*
X009052Y012356D02*
X008891Y012616D01*
X008442Y012879D01*
X007702Y012946D01*
X007174Y012974D01*
X006773Y012996D01*
X006557Y012975D01*
X006548Y012974D01*
X006088Y016447D02*
X001684Y016447D01*
X001677Y016606D02*
X005590Y016606D01*
X005093Y016764D02*
X001671Y016764D01*
X001665Y016923D02*
X004686Y016923D01*
X004356Y017081D02*
X003698Y017081D01*
X003233Y017081D02*
X002698Y017081D01*
X002671Y017054D02*
X002960Y017344D01*
X002960Y017540D01*
X002474Y017540D01*
X002474Y017054D01*
X002671Y017054D01*
X002474Y017081D02*
X002457Y017081D01*
X002457Y017054D02*
X002457Y017540D01*
X002474Y017540D01*
X002474Y017557D01*
X002971Y017557D01*
X002960Y017557D02*
X002960Y017754D01*
X002671Y018044D01*
X002474Y018044D01*
X002474Y017557D01*
X002960Y017557D01*
X002960Y017715D02*
X002971Y017715D01*
X003091Y017874D02*
X002840Y017874D01*
X002682Y018032D02*
X003249Y018032D01*
X002971Y017398D02*
X002960Y017398D01*
X002857Y017240D02*
X003074Y017240D01*
X002474Y017240D02*
X002457Y017240D01*
X002457Y017398D02*
X002474Y017398D01*
X002457Y017540D02*
X001971Y017540D01*
X001971Y017344D01*
X002260Y017054D01*
X002457Y017054D01*
X002233Y017081D02*
X001659Y017081D01*
X001675Y017240D02*
X002074Y017240D01*
X001971Y017398D02*
X001730Y017398D01*
X001786Y017557D02*
X002457Y017557D01*
X002457Y017540D01*
X002457Y017557D02*
X001971Y017557D01*
X001971Y017754D01*
X002260Y018044D01*
X002457Y018044D01*
X002457Y017557D01*
X002474Y017557D01*
X002457Y017715D02*
X002474Y017715D01*
X002457Y017874D02*
X002474Y017874D01*
X002457Y018032D02*
X002474Y018032D01*
X002249Y018032D02*
X002025Y018032D01*
X002091Y017874D02*
X001897Y017874D01*
X001841Y017715D02*
X001971Y017715D01*
X011052Y011281D02*
X011052Y010840D01*
X011261Y010458D01*
X011564Y010450D01*
X012292Y010434D01*
X015198Y010422D02*
X016765Y010422D01*
X016811Y010264D02*
X015198Y010264D01*
X015197Y010105D02*
X016858Y010105D01*
X016905Y009947D02*
X015197Y009947D01*
X015197Y009788D02*
X016951Y009788D01*
X016998Y009630D02*
X015197Y009630D01*
X015197Y009471D02*
X017045Y009471D01*
X017091Y009313D02*
X015197Y009313D01*
X015197Y009154D02*
X016301Y009154D01*
X016240Y009129D02*
X016379Y009186D01*
X016529Y009186D01*
X016668Y009129D01*
X016774Y009022D01*
X016831Y008884D01*
X016831Y008733D01*
X016774Y008594D01*
X016718Y008538D01*
X016722Y008280D01*
X016971Y008529D01*
X017230Y008529D01*
X017236Y008821D01*
X016324Y011920D01*
X016107Y012136D01*
X016107Y012449D01*
X016329Y012671D01*
X016642Y012671D01*
X016863Y012449D01*
X016863Y012136D01*
X016816Y012089D01*
X017728Y008993D01*
X017757Y008963D01*
X017757Y008853D01*
X017757Y008853D01*
X017757Y008748D01*
X017755Y008746D01*
X017750Y008529D01*
X017968Y008529D01*
X018249Y008247D01*
X018249Y007850D01*
X017968Y007569D01*
X016971Y007569D01*
X016729Y007811D01*
X016732Y007611D01*
X016733Y007609D01*
X016733Y007503D01*
X016733Y007394D01*
X016732Y007392D01*
X016730Y007288D01*
X016971Y007529D01*
X017968Y007529D01*
X018249Y007247D01*
X018249Y006850D01*
X017973Y006573D01*
X018031Y006597D01*
X018111Y006597D01*
X018111Y006163D01*
X018127Y006163D01*
X018127Y006597D01*
X018207Y006597D01*
X018370Y006530D01*
X018494Y006406D01*
X018562Y006243D01*
X018562Y006162D01*
X018127Y006162D01*
X018127Y006147D01*
X018562Y006147D01*
X018562Y006067D01*
X018494Y005904D01*
X018370Y005780D01*
X018207Y005712D01*
X018127Y005712D01*
X018127Y006147D01*
X018111Y006147D01*
X017677Y006147D01*
X017677Y006067D01*
X017744Y005904D01*
X017868Y005780D01*
X018031Y005712D01*
X018111Y005712D01*
X018111Y006147D01*
X018111Y006162D01*
X017677Y006162D01*
X017677Y006243D01*
X017744Y006406D01*
X017868Y006530D01*
X017962Y006569D01*
X016971Y006569D01*
X016723Y006817D01*
X016718Y006536D01*
X016866Y006150D01*
X016935Y006121D01*
X017042Y006015D01*
X017099Y005876D01*
X017099Y005725D01*
X017042Y005587D01*
X016935Y005480D01*
X016797Y005423D01*
X016646Y005423D01*
X016507Y005480D01*
X016401Y005587D01*
X016344Y005725D01*
X016344Y005876D01*
X016380Y005964D01*
X016235Y006345D01*
X016198Y006382D01*
X016198Y006492D01*
X016198Y006492D01*
X016198Y006597D01*
X016199Y006599D01*
X016213Y007502D01*
X016198Y008530D01*
X016133Y008594D01*
X016076Y008733D01*
X016076Y008884D01*
X016133Y009022D01*
X016240Y009129D01*
X016122Y008996D02*
X015617Y008996D01*
X015590Y009022D02*
X015428Y009090D01*
X015251Y009090D01*
X015197Y009067D01*
X015199Y011767D01*
X015289Y011729D01*
X015335Y011617D01*
X015436Y011517D01*
X015567Y011462D01*
X015710Y011462D01*
X015842Y011517D01*
X015942Y011617D01*
X015997Y011749D01*
X015997Y011892D01*
X015942Y012023D01*
X015842Y012124D01*
X015710Y012178D01*
X015567Y012178D01*
X015461Y012134D01*
X015199Y012244D01*
X015200Y012595D01*
X015251Y012544D01*
X015382Y012490D01*
X015525Y012490D01*
X015657Y012544D01*
X015757Y012645D01*
X015812Y012777D01*
X015812Y012919D01*
X015757Y013051D01*
X015657Y013151D01*
X015525Y013206D01*
X015382Y013206D01*
X015251Y013151D01*
X015200Y013101D01*
X015202Y014757D01*
X014046Y015980D01*
X014181Y016115D01*
X014181Y016943D01*
X013935Y017189D01*
X013713Y017189D01*
X013698Y017267D01*
X013874Y017442D01*
X013874Y018183D01*
X014034Y018180D01*
X014034Y017856D01*
X014453Y017856D01*
X014453Y017856D01*
X014034Y017856D01*
X014034Y017442D01*
X014280Y017196D01*
X014453Y017196D01*
X014453Y017855D01*
X014454Y017855D01*
X014454Y017196D01*
X014628Y017196D01*
X014874Y017442D01*
X014874Y017856D01*
X014874Y018065D01*
X016498Y017101D01*
X016341Y016943D01*
X016341Y016115D01*
X016587Y015869D01*
X016863Y015869D01*
X016871Y015210D01*
X017268Y015073D01*
X017268Y015066D01*
X017333Y014910D01*
X017453Y014790D01*
X017609Y014725D01*
X017779Y014725D01*
X017935Y014790D01*
X017973Y014828D01*
X018178Y014757D01*
X018784Y013434D01*
X018757Y008903D01*
X018788Y005978D01*
X018753Y002887D01*
X018068Y001549D01*
X008836Y001521D01*
X008845Y002037D01*
X009113Y001769D01*
X009292Y001769D01*
X009292Y002528D01*
X009332Y002528D01*
X009332Y001769D01*
X009511Y001769D01*
X009792Y002050D01*
X009792Y002529D01*
X009332Y002529D01*
X009332Y002569D01*
X009292Y002569D01*
X009292Y003329D01*
X009113Y003329D01*
X008863Y003079D01*
X008899Y005057D01*
X008911Y005056D01*
X008911Y004387D01*
X008939Y004360D01*
X008939Y003754D01*
X009033Y003660D01*
X009756Y003660D01*
X009850Y003754D01*
X009850Y004375D01*
X009862Y004387D01*
X009862Y005046D01*
X012958Y005009D01*
X015194Y006017D01*
X015196Y008228D01*
X015251Y008205D01*
X015428Y008205D01*
X015590Y008272D01*
X015715Y008396D01*
X015782Y008559D01*
X015782Y008735D01*
X015715Y008898D01*
X015590Y009022D01*
X015740Y008837D02*
X016076Y008837D01*
X016099Y008678D02*
X015782Y008678D01*
X015766Y008520D02*
X016198Y008520D01*
X016200Y008361D02*
X015680Y008361D01*
X015196Y008203D02*
X016203Y008203D01*
X016205Y008044D02*
X015196Y008044D01*
X015196Y007886D02*
X016208Y007886D01*
X016210Y007727D02*
X015195Y007727D01*
X015195Y007569D02*
X016212Y007569D01*
X016212Y007410D02*
X015195Y007410D01*
X015195Y007252D02*
X016210Y007252D01*
X016207Y007093D02*
X015195Y007093D01*
X015195Y006934D02*
X016205Y006934D01*
X016202Y006776D02*
X015195Y006776D01*
X015194Y006617D02*
X016200Y006617D01*
X016198Y006459D02*
X015194Y006459D01*
X015194Y006300D02*
X016252Y006300D01*
X016312Y006142D02*
X015194Y006142D01*
X015118Y005983D02*
X016373Y005983D01*
X016344Y005825D02*
X014767Y005825D01*
X014415Y005666D02*
X016368Y005666D01*
X016480Y005508D02*
X014063Y005508D01*
X013711Y005349D02*
X017638Y005349D01*
X017551Y005262D02*
X017551Y004906D01*
X017803Y004654D01*
X018159Y004654D01*
X018411Y004906D01*
X018411Y005262D01*
X018159Y005514D01*
X017803Y005514D01*
X017551Y005262D01*
X017551Y005190D02*
X016295Y005190D01*
X016253Y005233D02*
X016358Y005127D01*
X016358Y004776D01*
X015901Y004776D01*
X015864Y004776D01*
X015864Y004739D01*
X015408Y004739D01*
X015408Y004387D01*
X015513Y004282D01*
X015864Y004282D01*
X015864Y004739D01*
X015901Y004739D01*
X015901Y004282D01*
X016253Y004282D01*
X016358Y004387D01*
X016358Y004739D01*
X015901Y004739D01*
X015901Y004776D01*
X015901Y005233D01*
X016253Y005233D01*
X016358Y005032D02*
X017551Y005032D01*
X017584Y004873D02*
X016358Y004873D01*
X016358Y004715D02*
X017742Y004715D01*
X017803Y004514D02*
X017551Y004262D01*
X017551Y004084D01*
X017551Y003906D01*
X017803Y003654D01*
X017981Y003654D01*
X017981Y004084D01*
X017551Y004084D01*
X017981Y004084D01*
X017981Y004084D01*
X017981Y004084D01*
X017981Y004514D01*
X017803Y004514D01*
X017687Y004398D02*
X016358Y004398D01*
X016358Y004556D02*
X018772Y004556D01*
X018770Y004398D02*
X018276Y004398D01*
X018159Y004514D02*
X017981Y004514D01*
X017981Y004084D01*
X017981Y004084D01*
X017981Y003654D01*
X018159Y003654D01*
X018411Y003906D01*
X018411Y004084D01*
X017982Y004084D01*
X017982Y004084D01*
X018411Y004084D01*
X018411Y004262D01*
X018159Y004514D01*
X018220Y004715D02*
X018774Y004715D01*
X018776Y004873D02*
X018379Y004873D01*
X018411Y005032D02*
X018778Y005032D01*
X018779Y005190D02*
X018411Y005190D01*
X018324Y005349D02*
X018781Y005349D01*
X018783Y005508D02*
X018166Y005508D01*
X018127Y005825D02*
X018111Y005825D01*
X018111Y005983D02*
X018127Y005983D01*
X018111Y006142D02*
X018127Y006142D01*
X018111Y006300D02*
X018127Y006300D01*
X018111Y006459D02*
X018127Y006459D01*
X018017Y006617D02*
X018781Y006617D01*
X018783Y006459D02*
X018441Y006459D01*
X018538Y006300D02*
X018785Y006300D01*
X018787Y006142D02*
X018562Y006142D01*
X018527Y005983D02*
X018788Y005983D01*
X018787Y005825D02*
X018415Y005825D01*
X018785Y005666D02*
X017075Y005666D01*
X017099Y005825D02*
X017824Y005825D01*
X017711Y005983D02*
X017055Y005983D01*
X016885Y006142D02*
X017677Y006142D01*
X017700Y006300D02*
X016808Y006300D01*
X016748Y006459D02*
X017797Y006459D01*
X018175Y006776D02*
X018780Y006776D01*
X018778Y006934D02*
X018249Y006934D01*
X018249Y007093D02*
X018776Y007093D01*
X018775Y007252D02*
X018245Y007252D01*
X018087Y007410D02*
X018773Y007410D01*
X018771Y007569D02*
X016733Y007569D01*
X016730Y007727D02*
X016812Y007727D01*
X016852Y007410D02*
X016733Y007410D01*
X016473Y007501D02*
X016454Y008809D01*
X016607Y009154D02*
X017138Y009154D01*
X017185Y008996D02*
X016785Y008996D01*
X016831Y008837D02*
X017232Y008837D01*
X017233Y008678D02*
X016809Y008678D01*
X016718Y008520D02*
X016962Y008520D01*
X016803Y008361D02*
X016720Y008361D01*
X017469Y008049D02*
X017477Y007990D01*
X017497Y008856D01*
X016485Y012293D01*
X016863Y012325D02*
X017065Y012325D01*
X017011Y012483D02*
X016829Y012483D01*
X016956Y012642D02*
X016670Y012642D01*
X016821Y012801D02*
X015812Y012801D01*
X015795Y012959D02*
X016706Y012959D01*
X016706Y012916D02*
X016927Y012694D01*
X016938Y012694D01*
X017916Y009848D01*
X017879Y009811D01*
X017879Y009498D01*
X018100Y009277D01*
X018413Y009277D01*
X018635Y009498D01*
X018635Y009811D01*
X018413Y010033D01*
X018402Y010033D01*
X017425Y012879D01*
X017461Y012916D01*
X017461Y013229D01*
X017240Y013450D01*
X016927Y013450D01*
X016706Y013229D01*
X016706Y012916D01*
X016706Y013118D02*
X015690Y013118D01*
X015754Y012642D02*
X016300Y012642D01*
X016142Y012483D02*
X015200Y012483D01*
X015199Y012325D02*
X016107Y012325D01*
X016107Y012166D02*
X015739Y012166D01*
X015539Y012166D02*
X015384Y012166D01*
X015305Y011691D02*
X015199Y011691D01*
X015199Y011532D02*
X015420Y011532D01*
X015199Y011374D02*
X016485Y011374D01*
X016438Y011532D02*
X015857Y011532D01*
X015973Y011691D02*
X016391Y011691D01*
X016345Y011849D02*
X015997Y011849D01*
X015949Y012008D02*
X016236Y012008D01*
X016840Y012008D02*
X017174Y012008D01*
X017120Y012166D02*
X016863Y012166D01*
X016887Y011849D02*
X017229Y011849D01*
X017283Y011691D02*
X016933Y011691D01*
X016980Y011532D02*
X017337Y011532D01*
X017392Y011374D02*
X017027Y011374D01*
X017073Y011215D02*
X017446Y011215D01*
X017501Y011057D02*
X017120Y011057D01*
X017167Y010898D02*
X017555Y010898D01*
X017610Y010739D02*
X017213Y010739D01*
X017260Y010581D02*
X017664Y010581D01*
X017719Y010422D02*
X017307Y010422D01*
X017353Y010264D02*
X017773Y010264D01*
X017827Y010105D02*
X017400Y010105D01*
X017447Y009947D02*
X017882Y009947D01*
X017879Y009788D02*
X017493Y009788D01*
X017540Y009630D02*
X017879Y009630D01*
X017906Y009471D02*
X017587Y009471D01*
X017634Y009313D02*
X018065Y009313D01*
X018257Y009655D02*
X017084Y013072D01*
X017461Y013118D02*
X018783Y013118D01*
X018783Y013276D02*
X017414Y013276D01*
X017255Y013435D02*
X018784Y013435D01*
X018712Y013593D02*
X015201Y013593D01*
X015201Y013435D02*
X016912Y013435D01*
X016753Y013276D02*
X015200Y013276D01*
X015200Y013118D02*
X015217Y013118D01*
X015201Y013752D02*
X018639Y013752D01*
X018566Y013910D02*
X018075Y013910D01*
X018047Y013882D02*
X017884Y013815D01*
X017804Y013815D01*
X017804Y014250D01*
X017804Y014265D01*
X018239Y014265D01*
X018239Y014345D01*
X018171Y014508D01*
X018047Y014632D01*
X017884Y014700D01*
X017804Y014700D01*
X017804Y014265D01*
X017789Y014265D01*
X017789Y014700D01*
X017708Y014700D01*
X017546Y014632D01*
X017421Y014508D01*
X017354Y014345D01*
X017354Y014265D01*
X017788Y014265D01*
X017788Y014250D01*
X017354Y014250D01*
X017354Y014169D01*
X017421Y014007D01*
X017546Y013882D01*
X017708Y013815D01*
X017789Y013815D01*
X017789Y014250D01*
X017804Y014250D01*
X018239Y014250D01*
X018239Y014169D01*
X018171Y014007D01*
X018047Y013882D01*
X018197Y014069D02*
X018494Y014069D01*
X018421Y014227D02*
X018239Y014227D01*
X018222Y014386D02*
X018348Y014386D01*
X018276Y014545D02*
X018135Y014545D01*
X018203Y014703D02*
X015202Y014703D01*
X015202Y014545D02*
X017458Y014545D01*
X017371Y014386D02*
X015201Y014386D01*
X015201Y014227D02*
X017354Y014227D01*
X017395Y014069D02*
X015201Y014069D01*
X015201Y013910D02*
X017517Y013910D01*
X017789Y013910D02*
X017804Y013910D01*
X017789Y014069D02*
X017804Y014069D01*
X017789Y014227D02*
X017804Y014227D01*
X017789Y014386D02*
X017804Y014386D01*
X017789Y014545D02*
X017804Y014545D01*
X017381Y014862D02*
X015103Y014862D01*
X014953Y015020D02*
X017287Y015020D01*
X016962Y015179D02*
X014804Y015179D01*
X014654Y015337D02*
X016870Y015337D01*
X016868Y015496D02*
X014504Y015496D01*
X014354Y015654D02*
X016866Y015654D01*
X016864Y015813D02*
X014204Y015813D01*
X014054Y015971D02*
X014484Y015971D01*
X014587Y015869D02*
X014341Y016115D01*
X014341Y016529D01*
X014341Y016943D01*
X014587Y017189D01*
X014761Y017189D01*
X014761Y016529D01*
X015181Y016529D01*
X015181Y016943D01*
X014935Y017189D01*
X014761Y017189D01*
X014761Y016529D01*
X014761Y016529D01*
X015181Y016529D01*
X015181Y016115D01*
X014935Y015869D01*
X014761Y015869D01*
X014761Y016529D01*
X014761Y016529D01*
X014761Y016529D01*
X014761Y015869D01*
X014587Y015869D01*
X014761Y015971D02*
X014761Y015971D01*
X014761Y016130D02*
X014761Y016130D01*
X014761Y016289D02*
X014761Y016289D01*
X014761Y016447D02*
X014761Y016447D01*
X014760Y016529D02*
X014341Y016529D01*
X014760Y016529D01*
X014760Y016529D01*
X014761Y016606D02*
X014761Y016606D01*
X014761Y016764D02*
X014761Y016764D01*
X014761Y016923D02*
X014761Y016923D01*
X014761Y017081D02*
X014761Y017081D01*
X014672Y017240D02*
X016264Y017240D01*
X016479Y017081D02*
X016042Y017081D01*
X015935Y017189D02*
X016181Y016943D01*
X016181Y016115D01*
X015935Y015869D01*
X015587Y015869D01*
X015341Y016115D01*
X015341Y016943D01*
X015587Y017189D01*
X015935Y017189D01*
X015997Y017398D02*
X014830Y017398D01*
X014874Y017557D02*
X015729Y017557D01*
X015462Y017715D02*
X014874Y017715D01*
X014874Y017856D02*
X014454Y017856D01*
X014874Y017856D01*
X014874Y017874D02*
X015195Y017874D01*
X014928Y018032D02*
X014874Y018032D01*
X014454Y017856D02*
X014454Y017856D01*
X014453Y017715D02*
X014454Y017715D01*
X014453Y017557D02*
X014454Y017557D01*
X014453Y017398D02*
X014454Y017398D01*
X014453Y017240D02*
X014454Y017240D01*
X014479Y017081D02*
X014042Y017081D01*
X014181Y016923D02*
X014341Y016923D01*
X014341Y016764D02*
X014181Y016764D01*
X014181Y016606D02*
X014341Y016606D01*
X014341Y016447D02*
X014181Y016447D01*
X014181Y016289D02*
X014341Y016289D01*
X014341Y016130D02*
X014181Y016130D01*
X015037Y015971D02*
X015484Y015971D01*
X015341Y016130D02*
X015181Y016130D01*
X015181Y016289D02*
X015341Y016289D01*
X015341Y016447D02*
X015181Y016447D01*
X015181Y016606D02*
X015341Y016606D01*
X015341Y016764D02*
X015181Y016764D01*
X015181Y016923D02*
X015341Y016923D01*
X015479Y017081D02*
X015042Y017081D01*
X014236Y017240D02*
X013704Y017240D01*
X013830Y017398D02*
X014077Y017398D01*
X014034Y017557D02*
X013874Y017557D01*
X013874Y017715D02*
X014034Y017715D01*
X014034Y017874D02*
X013874Y017874D01*
X013874Y018032D02*
X014034Y018032D01*
X015883Y019521D02*
X015926Y019490D01*
X017969Y019549D02*
X017993Y019533D01*
X017969Y017551D02*
X017993Y017494D01*
X016484Y015971D02*
X016037Y015971D01*
X016181Y016130D02*
X016341Y016130D01*
X016341Y016289D02*
X016181Y016289D01*
X016181Y016447D02*
X016341Y016447D01*
X016341Y016606D02*
X016181Y016606D01*
X016181Y016764D02*
X016341Y016764D01*
X016341Y016923D02*
X016181Y016923D01*
X017461Y012959D02*
X018782Y012959D01*
X018781Y012801D02*
X017452Y012801D01*
X017506Y012642D02*
X018780Y012642D01*
X018779Y012483D02*
X017561Y012483D01*
X017615Y012325D02*
X018778Y012325D01*
X018777Y012166D02*
X017669Y012166D01*
X017724Y012008D02*
X018776Y012008D01*
X018775Y011849D02*
X017778Y011849D01*
X017833Y011691D02*
X018774Y011691D01*
X018773Y011532D02*
X017887Y011532D01*
X017942Y011374D02*
X018772Y011374D01*
X018771Y011215D02*
X017996Y011215D01*
X018050Y011057D02*
X018770Y011057D01*
X018769Y010898D02*
X018105Y010898D01*
X018159Y010739D02*
X018768Y010739D01*
X018767Y010581D02*
X018214Y010581D01*
X018268Y010422D02*
X018766Y010422D01*
X018765Y010264D02*
X018323Y010264D01*
X018377Y010105D02*
X018764Y010105D01*
X018763Y009947D02*
X018499Y009947D01*
X018635Y009788D02*
X018762Y009788D01*
X018761Y009630D02*
X018635Y009630D01*
X018607Y009471D02*
X018760Y009471D01*
X018759Y009313D02*
X018449Y009313D01*
X018758Y009154D02*
X017680Y009154D01*
X017727Y008996D02*
X018757Y008996D01*
X018758Y008837D02*
X017757Y008837D01*
X017753Y008678D02*
X018759Y008678D01*
X018761Y008520D02*
X017977Y008520D01*
X018136Y008361D02*
X018763Y008361D01*
X018764Y008203D02*
X018249Y008203D01*
X018249Y008044D02*
X018766Y008044D01*
X018768Y007886D02*
X018249Y007886D01*
X018127Y007727D02*
X018769Y007727D01*
X016922Y006617D02*
X016720Y006617D01*
X016722Y006776D02*
X016763Y006776D01*
X016458Y006490D02*
X016473Y007501D01*
X016458Y006490D02*
X016721Y005801D01*
X016963Y005508D02*
X017797Y005508D01*
X017981Y004398D02*
X017981Y004398D01*
X017981Y004239D02*
X017981Y004239D01*
X017981Y004081D02*
X017981Y004081D01*
X017981Y003922D02*
X017981Y003922D01*
X017981Y003764D02*
X017981Y003764D01*
X018269Y003764D02*
X018763Y003764D01*
X018765Y003922D02*
X018411Y003922D01*
X018411Y004081D02*
X018767Y004081D01*
X018768Y004239D02*
X018411Y004239D01*
X018761Y003605D02*
X014463Y003605D01*
X014463Y003575D02*
X014463Y003751D01*
X014396Y003913D01*
X014271Y004038D01*
X014109Y004105D01*
X013933Y004105D01*
X013770Y004038D01*
X013645Y003913D01*
X013578Y003751D01*
X013578Y003575D01*
X013645Y003412D01*
X013770Y003288D01*
X013741Y003288D01*
X013770Y003288D02*
X013840Y003259D01*
X013770Y003259D01*
X013713Y003315D01*
X013170Y003315D01*
X013065Y003210D01*
X013065Y002628D01*
X013109Y002584D01*
X013065Y002541D01*
X013065Y002268D01*
X013423Y002268D01*
X013423Y002231D01*
X013065Y002231D01*
X013065Y001958D01*
X013170Y001853D01*
X013423Y001853D01*
X013423Y002231D01*
X013460Y002231D01*
X013460Y001853D01*
X013713Y001853D01*
X013819Y001958D01*
X013819Y002231D01*
X013461Y002231D01*
X013461Y002268D01*
X013819Y002268D01*
X013819Y002541D01*
X013780Y002579D01*
X013989Y002579D01*
X013989Y002050D01*
X014271Y001769D01*
X014668Y001769D01*
X014949Y002050D01*
X014949Y003047D01*
X014668Y003329D01*
X014312Y003329D01*
X014396Y003412D01*
X014463Y003575D01*
X014410Y003446D02*
X018759Y003446D01*
X018758Y003288D02*
X017709Y003288D01*
X017668Y003329D02*
X017949Y003047D01*
X017949Y002050D01*
X017668Y001769D01*
X017271Y001769D01*
X016989Y002050D01*
X016989Y003047D01*
X017271Y003329D01*
X017668Y003329D01*
X017867Y003129D02*
X018756Y003129D01*
X018754Y002971D02*
X017949Y002971D01*
X017949Y002812D02*
X018715Y002812D01*
X018633Y002654D02*
X017949Y002654D01*
X017949Y002495D02*
X018552Y002495D01*
X018471Y002337D02*
X017949Y002337D01*
X017949Y002178D02*
X018390Y002178D01*
X018309Y002020D02*
X017919Y002020D01*
X017761Y001861D02*
X018228Y001861D01*
X018147Y001703D02*
X008839Y001703D01*
X008842Y001861D02*
X009021Y001861D01*
X008862Y002020D02*
X008844Y002020D01*
X009292Y002020D02*
X009332Y002020D01*
X009332Y002178D02*
X009292Y002178D01*
X009292Y002337D02*
X009332Y002337D01*
X009332Y002495D02*
X009292Y002495D01*
X009332Y002569D02*
X009792Y002569D01*
X009792Y003047D01*
X009511Y003329D01*
X009332Y003329D01*
X009332Y002569D01*
X009332Y002654D02*
X009292Y002654D01*
X009292Y002812D02*
X009332Y002812D01*
X009332Y002971D02*
X009292Y002971D01*
X009292Y003129D02*
X009332Y003129D01*
X009332Y003288D02*
X009292Y003288D01*
X009073Y003288D02*
X008867Y003288D01*
X008870Y003446D02*
X013631Y003446D01*
X013578Y003605D02*
X008873Y003605D01*
X008876Y003764D02*
X008939Y003764D01*
X008939Y003922D02*
X008878Y003922D01*
X008881Y004081D02*
X008939Y004081D01*
X008939Y004239D02*
X008884Y004239D01*
X008887Y004398D02*
X008911Y004398D01*
X008911Y004556D02*
X008890Y004556D01*
X008892Y004715D02*
X008911Y004715D01*
X008895Y004873D02*
X008911Y004873D01*
X008898Y005032D02*
X008911Y005032D01*
X009862Y005032D02*
X011023Y005032D01*
X009862Y004873D02*
X015408Y004873D01*
X015408Y004776D02*
X015864Y004776D01*
X015864Y005233D01*
X015513Y005233D01*
X015408Y005127D01*
X015408Y004776D01*
X015408Y004715D02*
X009862Y004715D01*
X009862Y004556D02*
X015408Y004556D01*
X015408Y004398D02*
X009862Y004398D01*
X009850Y004239D02*
X017551Y004239D01*
X017551Y004081D02*
X014168Y004081D01*
X014387Y003922D02*
X017551Y003922D01*
X017694Y003764D02*
X014458Y003764D01*
X014709Y003288D02*
X015230Y003288D01*
X015271Y003329D02*
X014989Y003047D01*
X014989Y002050D01*
X015271Y001769D01*
X015668Y001769D01*
X015949Y002050D01*
X015949Y003047D01*
X015668Y003329D01*
X015271Y003329D01*
X015071Y003129D02*
X014867Y003129D01*
X014949Y002971D02*
X014989Y002971D01*
X014989Y002812D02*
X014949Y002812D01*
X014949Y002654D02*
X014989Y002654D01*
X014989Y002495D02*
X014949Y002495D01*
X014949Y002337D02*
X014989Y002337D01*
X014989Y002178D02*
X014949Y002178D01*
X014919Y002020D02*
X015020Y002020D01*
X015178Y001861D02*
X014761Y001861D01*
X014178Y001861D02*
X013721Y001861D01*
X013819Y002020D02*
X014020Y002020D01*
X013989Y002178D02*
X013819Y002178D01*
X013819Y002337D02*
X013989Y002337D01*
X013989Y002495D02*
X013819Y002495D01*
X013460Y002178D02*
X013423Y002178D01*
X013423Y002020D02*
X013460Y002020D01*
X013460Y001861D02*
X013423Y001861D01*
X013162Y001861D02*
X012603Y001861D01*
X012511Y001769D02*
X012792Y002050D01*
X012792Y002529D01*
X012332Y002529D01*
X012332Y002569D01*
X012292Y002569D01*
X012292Y003329D01*
X012113Y003329D01*
X011832Y003047D01*
X011832Y002569D01*
X012292Y002569D01*
X012292Y002529D01*
X011832Y002529D01*
X011832Y002050D01*
X012113Y001769D01*
X012292Y001769D01*
X012292Y002528D01*
X012332Y002528D01*
X012332Y001769D01*
X012511Y001769D01*
X012332Y001861D02*
X012292Y001861D01*
X012292Y002020D02*
X012332Y002020D01*
X012332Y002178D02*
X012292Y002178D01*
X012292Y002337D02*
X012332Y002337D01*
X012332Y002495D02*
X012292Y002495D01*
X012332Y002569D02*
X012792Y002569D01*
X012792Y003047D01*
X012511Y003329D01*
X012332Y003329D01*
X012332Y002569D01*
X012332Y002654D02*
X012292Y002654D01*
X012292Y002812D02*
X012332Y002812D01*
X012332Y002971D02*
X012292Y002971D01*
X012292Y003129D02*
X012332Y003129D01*
X012332Y003288D02*
X012292Y003288D01*
X012073Y003288D02*
X011551Y003288D01*
X011511Y003329D02*
X011332Y003329D01*
X011332Y002569D01*
X011292Y002569D01*
X011292Y003329D01*
X011113Y003329D01*
X010832Y003047D01*
X010832Y002569D01*
X011292Y002569D01*
X011292Y002529D01*
X010832Y002529D01*
X010832Y002050D01*
X011113Y001769D01*
X011292Y001769D01*
X011292Y002528D01*
X011332Y002528D01*
X011332Y001769D01*
X011511Y001769D01*
X011792Y002050D01*
X011792Y002529D01*
X011332Y002529D01*
X011332Y002569D01*
X011792Y002569D01*
X011792Y003047D01*
X011511Y003329D01*
X011332Y003288D02*
X011292Y003288D01*
X011292Y003129D02*
X011332Y003129D01*
X011332Y002971D02*
X011292Y002971D01*
X011292Y002812D02*
X011332Y002812D01*
X011332Y002654D02*
X011292Y002654D01*
X011292Y002495D02*
X011332Y002495D01*
X011332Y002337D02*
X011292Y002337D01*
X011292Y002178D02*
X011332Y002178D01*
X011332Y002020D02*
X011292Y002020D01*
X011292Y001861D02*
X011332Y001861D01*
X011603Y001861D02*
X012021Y001861D01*
X011862Y002020D02*
X011762Y002020D01*
X011792Y002178D02*
X011832Y002178D01*
X011832Y002337D02*
X011792Y002337D01*
X011792Y002495D02*
X011832Y002495D01*
X011832Y002654D02*
X011792Y002654D01*
X011792Y002812D02*
X011832Y002812D01*
X011832Y002971D02*
X011792Y002971D01*
X011710Y003129D02*
X011914Y003129D01*
X012551Y003288D02*
X013143Y003288D01*
X013065Y003129D02*
X012710Y003129D01*
X012792Y002971D02*
X013065Y002971D01*
X013065Y002812D02*
X012792Y002812D01*
X012792Y002654D02*
X013065Y002654D01*
X013065Y002495D02*
X012792Y002495D01*
X012792Y002337D02*
X013065Y002337D01*
X013065Y002178D02*
X012792Y002178D01*
X012762Y002020D02*
X013065Y002020D01*
X013583Y003764D02*
X009850Y003764D01*
X009850Y003922D02*
X013654Y003922D01*
X013873Y004081D02*
X009850Y004081D01*
X010113Y003329D02*
X009832Y003047D01*
X009832Y002569D01*
X010292Y002569D01*
X010292Y003329D01*
X010113Y003329D01*
X010073Y003288D02*
X009551Y003288D01*
X009710Y003129D02*
X009914Y003129D01*
X009832Y002971D02*
X009792Y002971D01*
X009792Y002812D02*
X009832Y002812D01*
X009832Y002654D02*
X009792Y002654D01*
X009832Y002529D02*
X009832Y002050D01*
X010113Y001769D01*
X010292Y001769D01*
X010292Y002528D01*
X010332Y002528D01*
X010332Y001769D01*
X010511Y001769D01*
X010792Y002050D01*
X010792Y002529D01*
X010332Y002529D01*
X010332Y002569D01*
X010292Y002569D01*
X010292Y002529D01*
X009832Y002529D01*
X009832Y002495D02*
X009792Y002495D01*
X009792Y002337D02*
X009832Y002337D01*
X009832Y002178D02*
X009792Y002178D01*
X009762Y002020D02*
X009862Y002020D01*
X010021Y001861D02*
X009603Y001861D01*
X009332Y001861D02*
X009292Y001861D01*
X008836Y001544D02*
X016498Y001544D01*
X016668Y001769D02*
X016271Y001769D01*
X015989Y002050D01*
X015989Y003047D01*
X016271Y003329D01*
X016668Y003329D01*
X016949Y003047D01*
X016949Y002050D01*
X016668Y001769D01*
X016761Y001861D02*
X017178Y001861D01*
X017020Y002020D02*
X016919Y002020D01*
X016949Y002178D02*
X016989Y002178D01*
X016989Y002337D02*
X016949Y002337D01*
X016949Y002495D02*
X016989Y002495D01*
X016989Y002654D02*
X016949Y002654D01*
X016949Y002812D02*
X016989Y002812D01*
X016989Y002971D02*
X016949Y002971D01*
X016867Y003129D02*
X017071Y003129D01*
X017230Y003288D02*
X016709Y003288D01*
X016230Y003288D02*
X015709Y003288D01*
X015867Y003129D02*
X016071Y003129D01*
X015989Y002971D02*
X015949Y002971D01*
X015949Y002812D02*
X015989Y002812D01*
X015989Y002654D02*
X015949Y002654D01*
X015949Y002495D02*
X015989Y002495D01*
X015989Y002337D02*
X015949Y002337D01*
X015949Y002178D02*
X015989Y002178D01*
X016020Y002020D02*
X015919Y002020D01*
X015761Y001861D02*
X016178Y001861D01*
X015901Y004398D02*
X015864Y004398D01*
X015864Y004556D02*
X015901Y004556D01*
X015901Y004715D02*
X015864Y004715D01*
X015864Y004873D02*
X015901Y004873D01*
X015901Y005032D02*
X015864Y005032D01*
X015864Y005190D02*
X015901Y005190D01*
X015471Y005190D02*
X013360Y005190D01*
X013008Y005032D02*
X015408Y005032D01*
X011073Y003288D02*
X010551Y003288D01*
X010511Y003329D02*
X010332Y003329D01*
X010332Y002569D01*
X010792Y002569D01*
X010792Y003047D01*
X010511Y003329D01*
X010332Y003288D02*
X010292Y003288D01*
X010292Y003129D02*
X010332Y003129D01*
X010332Y002971D02*
X010292Y002971D01*
X010292Y002812D02*
X010332Y002812D01*
X010332Y002654D02*
X010292Y002654D01*
X010292Y002495D02*
X010332Y002495D01*
X010332Y002337D02*
X010292Y002337D01*
X010292Y002178D02*
X010332Y002178D01*
X010332Y002020D02*
X010292Y002020D01*
X010292Y001861D02*
X010332Y001861D01*
X010603Y001861D02*
X011021Y001861D01*
X010862Y002020D02*
X010762Y002020D01*
X010792Y002178D02*
X010832Y002178D01*
X010832Y002337D02*
X010792Y002337D01*
X010792Y002495D02*
X010832Y002495D01*
X010832Y002654D02*
X010792Y002654D01*
X010792Y002812D02*
X010832Y002812D01*
X010832Y002971D02*
X010792Y002971D01*
X010710Y003129D02*
X010914Y003129D01*
X008914Y003129D02*
X008864Y003129D01*
X015198Y010581D02*
X016718Y010581D01*
X016671Y010739D02*
X015198Y010739D01*
X015198Y010898D02*
X016625Y010898D01*
X016578Y011057D02*
X015198Y011057D01*
X015199Y011215D02*
X016531Y011215D01*
D11*
X012269Y007123D03*
X012269Y006123D03*
X012137Y008356D03*
X012137Y009356D03*
X017981Y005084D03*
X017981Y004084D03*
D12*
X005930Y017549D03*
X004942Y017529D03*
D13*
X010060Y008753D03*
X010060Y007753D03*
X010060Y006753D03*
D14*
X003466Y017549D03*
X002466Y017549D03*
D15*
X009761Y016529D03*
X010761Y016529D03*
X011761Y016529D03*
X011454Y017856D03*
X012454Y017856D03*
X013454Y017856D03*
X014454Y017856D03*
X014761Y016529D03*
X015761Y016529D03*
X016761Y016529D03*
X013761Y016529D03*
D16*
X015883Y019521D03*
X016521Y019509D03*
X009387Y019521D03*
X009387Y004757D03*
X009395Y004116D03*
X015883Y004757D03*
X016564Y004080D03*
D17*
X017969Y017551D03*
X017969Y019549D03*
D18*
X017796Y014257D03*
X015340Y008647D03*
X014666Y008655D03*
X012261Y010438D03*
X011564Y010450D03*
X010544Y010293D03*
X008403Y007379D03*
X009135Y005974D03*
X006481Y004127D03*
X006064Y002464D03*
X007591Y009096D03*
X006741Y010738D03*
X010784Y015135D03*
X007536Y015675D03*
X006588Y019612D03*
X018119Y006155D03*
X014021Y003663D03*
D19*
X003356Y004320D02*
X003359Y004377D01*
X003366Y004433D01*
X003379Y004489D01*
X003397Y004543D01*
X003420Y004595D01*
X003447Y004645D01*
X003479Y004692D01*
X003515Y004736D01*
X003554Y004777D01*
X003598Y004814D01*
X003644Y004846D01*
X003693Y004875D01*
X003745Y004899D01*
X003799Y004918D01*
X003854Y004932D01*
X003910Y004941D01*
X003967Y004945D01*
X004024Y004944D01*
X004080Y004937D01*
X004136Y004926D01*
X004190Y004909D01*
X004243Y004887D01*
X004293Y004861D01*
X004341Y004831D01*
X004386Y004796D01*
X004428Y004757D01*
X004466Y004714D01*
X004500Y004669D01*
X004529Y004620D01*
X004554Y004569D01*
X004575Y004516D01*
X004590Y004461D01*
X004600Y004405D01*
X004605Y004348D01*
X004605Y004292D01*
X004600Y004235D01*
X004590Y004179D01*
X004575Y004124D01*
X004554Y004071D01*
X004529Y004020D01*
X004500Y003971D01*
X004466Y003926D01*
X004428Y003883D01*
X004386Y003844D01*
X004341Y003809D01*
X004294Y003779D01*
X004243Y003753D01*
X004190Y003731D01*
X004136Y003714D01*
X004080Y003703D01*
X004024Y003696D01*
X003967Y003695D01*
X003910Y003699D01*
X003854Y003708D01*
X003799Y003722D01*
X003745Y003741D01*
X003693Y003765D01*
X003644Y003794D01*
X003598Y003826D01*
X003554Y003863D01*
X003515Y003904D01*
X003479Y003948D01*
X003447Y003995D01*
X003420Y004045D01*
X003397Y004097D01*
X003379Y004151D01*
X003366Y004207D01*
X003359Y004263D01*
X003356Y004320D01*
X003356Y008820D02*
X003359Y008877D01*
X003366Y008933D01*
X003379Y008989D01*
X003397Y009043D01*
X003420Y009095D01*
X003447Y009145D01*
X003479Y009192D01*
X003515Y009236D01*
X003554Y009277D01*
X003598Y009314D01*
X003644Y009346D01*
X003693Y009375D01*
X003745Y009399D01*
X003799Y009418D01*
X003854Y009432D01*
X003910Y009441D01*
X003967Y009445D01*
X004024Y009444D01*
X004080Y009437D01*
X004136Y009426D01*
X004190Y009409D01*
X004243Y009387D01*
X004293Y009361D01*
X004341Y009331D01*
X004386Y009296D01*
X004428Y009257D01*
X004466Y009214D01*
X004500Y009169D01*
X004529Y009120D01*
X004554Y009069D01*
X004575Y009016D01*
X004590Y008961D01*
X004600Y008905D01*
X004605Y008848D01*
X004605Y008792D01*
X004600Y008735D01*
X004590Y008679D01*
X004575Y008624D01*
X004554Y008571D01*
X004529Y008520D01*
X004500Y008471D01*
X004466Y008426D01*
X004428Y008383D01*
X004386Y008344D01*
X004341Y008309D01*
X004294Y008279D01*
X004243Y008253D01*
X004190Y008231D01*
X004136Y008214D01*
X004080Y008203D01*
X004024Y008196D01*
X003967Y008195D01*
X003910Y008199D01*
X003854Y008208D01*
X003799Y008222D01*
X003745Y008241D01*
X003693Y008265D01*
X003644Y008294D01*
X003598Y008326D01*
X003554Y008363D01*
X003515Y008404D01*
X003479Y008448D01*
X003447Y008495D01*
X003420Y008545D01*
X003397Y008597D01*
X003379Y008651D01*
X003366Y008707D01*
X003359Y008763D01*
X003356Y008820D01*
X003419Y010950D02*
X003422Y011007D01*
X003429Y011063D01*
X003442Y011119D01*
X003460Y011173D01*
X003483Y011225D01*
X003510Y011275D01*
X003542Y011322D01*
X003578Y011366D01*
X003617Y011407D01*
X003661Y011444D01*
X003707Y011476D01*
X003756Y011505D01*
X003808Y011529D01*
X003862Y011548D01*
X003917Y011562D01*
X003973Y011571D01*
X004030Y011575D01*
X004087Y011574D01*
X004143Y011567D01*
X004199Y011556D01*
X004253Y011539D01*
X004306Y011517D01*
X004356Y011491D01*
X004404Y011461D01*
X004449Y011426D01*
X004491Y011387D01*
X004529Y011344D01*
X004563Y011299D01*
X004592Y011250D01*
X004617Y011199D01*
X004638Y011146D01*
X004653Y011091D01*
X004663Y011035D01*
X004668Y010978D01*
X004668Y010922D01*
X004663Y010865D01*
X004653Y010809D01*
X004638Y010754D01*
X004617Y010701D01*
X004592Y010650D01*
X004563Y010601D01*
X004529Y010556D01*
X004491Y010513D01*
X004449Y010474D01*
X004404Y010439D01*
X004357Y010409D01*
X004306Y010383D01*
X004253Y010361D01*
X004199Y010344D01*
X004143Y010333D01*
X004087Y010326D01*
X004030Y010325D01*
X003973Y010329D01*
X003917Y010338D01*
X003862Y010352D01*
X003808Y010371D01*
X003756Y010395D01*
X003707Y010424D01*
X003661Y010456D01*
X003617Y010493D01*
X003578Y010534D01*
X003542Y010578D01*
X003510Y010625D01*
X003483Y010675D01*
X003460Y010727D01*
X003442Y010781D01*
X003429Y010837D01*
X003422Y010893D01*
X003419Y010950D01*
X003419Y015450D02*
X003422Y015507D01*
X003429Y015563D01*
X003442Y015619D01*
X003460Y015673D01*
X003483Y015725D01*
X003510Y015775D01*
X003542Y015822D01*
X003578Y015866D01*
X003617Y015907D01*
X003661Y015944D01*
X003707Y015976D01*
X003756Y016005D01*
X003808Y016029D01*
X003862Y016048D01*
X003917Y016062D01*
X003973Y016071D01*
X004030Y016075D01*
X004087Y016074D01*
X004143Y016067D01*
X004199Y016056D01*
X004253Y016039D01*
X004306Y016017D01*
X004356Y015991D01*
X004404Y015961D01*
X004449Y015926D01*
X004491Y015887D01*
X004529Y015844D01*
X004563Y015799D01*
X004592Y015750D01*
X004617Y015699D01*
X004638Y015646D01*
X004653Y015591D01*
X004663Y015535D01*
X004668Y015478D01*
X004668Y015422D01*
X004663Y015365D01*
X004653Y015309D01*
X004638Y015254D01*
X004617Y015201D01*
X004592Y015150D01*
X004563Y015101D01*
X004529Y015056D01*
X004491Y015013D01*
X004449Y014974D01*
X004404Y014939D01*
X004357Y014909D01*
X004306Y014883D01*
X004253Y014861D01*
X004199Y014844D01*
X004143Y014833D01*
X004087Y014826D01*
X004030Y014825D01*
X003973Y014829D01*
X003917Y014838D01*
X003862Y014852D01*
X003808Y014871D01*
X003756Y014895D01*
X003707Y014924D01*
X003661Y014956D01*
X003617Y014993D01*
X003578Y015034D01*
X003542Y015078D01*
X003510Y015125D01*
X003483Y015175D01*
X003460Y015227D01*
X003442Y015281D01*
X003429Y015337D01*
X003422Y015393D01*
X003419Y015450D01*
D20*
X006544Y014950D03*
X006544Y013950D03*
X006544Y012950D03*
X006544Y011950D03*
X007544Y011450D03*
X007544Y012450D03*
X007544Y013450D03*
X007544Y014450D03*
X006481Y008320D03*
X006481Y007320D03*
X006481Y006320D03*
X006481Y005320D03*
X007481Y004820D03*
X007481Y005820D03*
X007481Y006820D03*
X007481Y007820D03*
D21*
X006861Y002444D03*
X008121Y002444D03*
D22*
X013442Y002249D03*
X013442Y002919D03*
X006867Y018746D03*
X006198Y018746D03*
D23*
X007615Y018868D03*
X007615Y017608D03*
D24*
X004966Y019547D03*
X003966Y019547D03*
X002966Y019547D03*
X001966Y019547D03*
X001971Y002551D03*
X002971Y002551D03*
X003971Y002551D03*
X004971Y002551D03*
X009312Y002549D03*
X010312Y002549D03*
X011312Y002549D03*
X012312Y002549D03*
X014469Y002549D03*
X015469Y002549D03*
X016469Y002549D03*
X017469Y002549D03*
D25*
X017469Y007049D03*
X017469Y008049D03*
D26*
X013832Y011755D03*
X013832Y012255D03*
X013832Y012755D03*
X013832Y013255D03*
X011784Y013255D03*
X011784Y012755D03*
X011784Y012255D03*
X011784Y011755D03*
D27*
X012137Y008356D02*
X012151Y008123D01*
X012151Y007336D01*
X012269Y007123D01*
X013442Y002919D02*
X014340Y002919D01*
X014458Y002529D01*
X014469Y002549D01*
X007497Y005828D02*
X007038Y005589D01*
X006485Y005301D01*
X006558Y011951D02*
X007513Y012415D01*
X006556Y011966D02*
X006558Y011951D01*
X009769Y016088D02*
X009761Y016529D01*
X010761Y016529D02*
X010891Y016942D01*
X011458Y017588D01*
X011442Y017647D02*
X011454Y017856D01*
X011430Y019793D01*
X011832Y020305D01*
X017458Y020273D01*
X017993Y019533D01*
X016895Y019517D02*
X017584Y018478D01*
X017993Y017494D01*
X016895Y019517D02*
X015883Y019521D01*
X015926Y019490D02*
X012658Y019560D01*
X012481Y019356D01*
X012454Y017856D01*
X007769Y017612D02*
X007615Y017608D01*
X006245Y017612D02*
X005930Y017549D01*
D28*
X017694Y015151D03*
X018280Y015431D03*
X018588Y014907D03*
X017824Y015879D03*
X018269Y013458D03*
X018269Y012616D03*
X018241Y011584D03*
D29*
X015639Y011820D02*
X014611Y012253D01*
X013832Y012255D01*
X013832Y011755D02*
X014391Y011773D01*
X015462Y011293D01*
X015454Y012848D02*
X014466Y012757D01*
X013832Y012755D01*
X013832Y013255D02*
X013851Y013557D01*
X013635Y013836D01*
X011777Y013631D02*
X011800Y013320D01*
X011784Y013255D01*
X011777Y013631D02*
X011544Y014230D01*
X010631Y013868D02*
X010379Y013686D01*
X010367Y012438D01*
X010544Y011761D01*
X011784Y011755D01*
X011784Y012255D02*
X011351Y012234D01*
X011166Y012112D01*
X010804Y012072D01*
X010666Y012411D01*
X010678Y012797D01*
X010694Y012883D01*
X011103Y012616D02*
X011194Y012761D01*
X011777Y012773D01*
X011784Y012755D01*
X011127Y011312D02*
X011052Y011281D01*
X012261Y010438D02*
X012312Y010399D01*
X012292Y010434D01*
X009056Y012368D02*
X009048Y012568D01*
X008891Y012616D01*
X007548Y012450D02*
X007544Y012450D01*
X006548Y012068D02*
X006544Y011950D01*
X006558Y011951D02*
X006548Y012068D01*
X006544Y012950D02*
X006556Y012966D01*
X006557Y012975D01*
X007387Y017612D02*
X007615Y017608D01*
X007387Y018753D02*
X007615Y018868D01*
X007032Y018753D02*
X006867Y018746D01*
X006198Y018746D02*
X006166Y018812D01*
X011442Y017647D02*
X011458Y017588D01*
X014670Y017336D02*
X014670Y016982D01*
X014761Y016529D01*
X014749Y016076D01*
X009135Y005974D02*
X008245Y006265D01*
X006521Y006360D01*
X006410Y006336D01*
X006548Y005568D02*
X006481Y005320D01*
X006548Y005568D02*
X007048Y005568D01*
X007038Y005589D01*
X007036Y005592D01*
X007387Y003045D02*
X007151Y002809D01*
X006861Y002444D01*
X008121Y002444D02*
X008371Y002454D01*
X009040Y002454D01*
X009312Y002549D01*
X009591Y002572D01*
X010025Y002572D01*
X010312Y002549D01*
X010576Y002572D01*
X011048Y002572D01*
X011312Y002549D01*
X011599Y002572D01*
X012032Y002572D01*
X012312Y002549D01*
D30*
X007387Y003045D03*
X015639Y011820D03*
X015454Y012848D03*
X013635Y013836D03*
X011103Y012616D03*
X010694Y012883D03*
X010631Y013868D03*
D31*
X009056Y012368D03*
X016454Y008809D03*
X016721Y005801D03*
D32*
X010399Y008308D02*
X010395Y008301D01*
X009725Y008301D01*
X009712Y008308D01*
X010011Y008308D01*
X010011Y008705D01*
X009319Y008705D01*
X009319Y008569D01*
X009420Y008468D01*
X009245Y008564D01*
X009197Y012050D01*
X009253Y012073D01*
X009351Y012171D01*
X009404Y012298D01*
X009404Y012437D01*
X009351Y012565D01*
X009253Y012662D01*
X009201Y012684D01*
X009188Y012697D01*
X009154Y015179D01*
X008237Y016994D01*
X006127Y016946D01*
X006009Y017074D01*
X006025Y017074D01*
X006199Y017146D01*
X006333Y017280D01*
X006405Y017454D01*
X006405Y017499D01*
X005980Y017499D01*
X005980Y017599D01*
X006405Y017599D01*
X006405Y017643D01*
X006333Y017818D01*
X006199Y017951D01*
X006037Y018018D01*
X006154Y018127D01*
X006434Y018143D01*
X009261Y018112D01*
X010347Y017242D01*
X010316Y015816D01*
X010311Y013953D01*
X010303Y013933D01*
X010303Y013876D01*
X010300Y013876D01*
X010255Y013832D01*
X010189Y013765D01*
X010189Y013687D01*
X010178Y012518D01*
X010177Y012517D01*
X010177Y012439D01*
X010177Y012360D01*
X010196Y012341D01*
X010306Y011922D01*
X010302Y010634D01*
X010195Y010526D01*
X010132Y010375D01*
X010132Y010211D01*
X010195Y010059D01*
X010301Y009953D01*
X010300Y009777D01*
X010363Y009328D01*
X010424Y009199D01*
X010108Y009199D01*
X010108Y008802D01*
X010011Y008802D01*
X010011Y008705D01*
X010108Y008705D01*
X010108Y008308D01*
X010399Y008308D01*
X010108Y008361D02*
X010011Y008361D01*
X010011Y008459D02*
X010108Y008459D01*
X010108Y008558D02*
X010011Y008558D01*
X010011Y008656D02*
X010108Y008656D01*
X010011Y008755D02*
X009242Y008755D01*
X009319Y008802D02*
X009319Y008938D01*
X009580Y009199D01*
X010011Y009199D01*
X010011Y008802D01*
X009319Y008802D01*
X009319Y008853D02*
X009241Y008853D01*
X009240Y008952D02*
X009333Y008952D01*
X009238Y009050D02*
X009432Y009050D01*
X009531Y009149D02*
X009237Y009149D01*
X009236Y009247D02*
X010401Y009247D01*
X010361Y009346D02*
X009234Y009346D01*
X009233Y009445D02*
X010347Y009445D01*
X010333Y009543D02*
X009232Y009543D01*
X009230Y009642D02*
X010319Y009642D01*
X010305Y009740D02*
X009229Y009740D01*
X009228Y009839D02*
X010300Y009839D01*
X010301Y009937D02*
X009226Y009937D01*
X009225Y010036D02*
X010218Y010036D01*
X010163Y010134D02*
X009224Y010134D01*
X009222Y010233D02*
X010132Y010233D01*
X010132Y010331D02*
X009221Y010331D01*
X009220Y010430D02*
X010155Y010430D01*
X010197Y010529D02*
X009218Y010529D01*
X009217Y010627D02*
X010295Y010627D01*
X010303Y010726D02*
X009215Y010726D01*
X009214Y010824D02*
X010303Y010824D01*
X010303Y010923D02*
X009213Y010923D01*
X009211Y011021D02*
X010303Y011021D01*
X010304Y011120D02*
X009210Y011120D01*
X009209Y011218D02*
X010304Y011218D01*
X010304Y011317D02*
X009207Y011317D01*
X009206Y011415D02*
X010304Y011415D01*
X010305Y011514D02*
X009205Y011514D01*
X009203Y011612D02*
X010305Y011612D01*
X010305Y011711D02*
X009202Y011711D01*
X009201Y011810D02*
X010305Y011810D01*
X010306Y011908D02*
X009199Y011908D01*
X009198Y012007D02*
X010284Y012007D01*
X010258Y012105D02*
X009286Y012105D01*
X009365Y012204D02*
X010232Y012204D01*
X010206Y012302D02*
X009404Y012302D01*
X009404Y012401D02*
X010177Y012401D01*
X010177Y012439D02*
X010177Y012439D01*
X010177Y012499D02*
X009378Y012499D01*
X009317Y012598D02*
X010179Y012598D01*
X010180Y012696D02*
X009189Y012696D01*
X009187Y012795D02*
X010180Y012795D01*
X010181Y012894D02*
X009186Y012894D01*
X009184Y012992D02*
X010182Y012992D01*
X010183Y013091D02*
X009183Y013091D01*
X009182Y013189D02*
X010184Y013189D01*
X010185Y013288D02*
X009180Y013288D01*
X009179Y013386D02*
X010186Y013386D01*
X010187Y013485D02*
X009178Y013485D01*
X009176Y013583D02*
X010188Y013583D01*
X010189Y013682D02*
X009175Y013682D01*
X009174Y013780D02*
X010204Y013780D01*
X010303Y013879D02*
X009172Y013879D01*
X009171Y013978D02*
X010311Y013978D01*
X010311Y014076D02*
X009170Y014076D01*
X009168Y014175D02*
X010312Y014175D01*
X010312Y014273D02*
X009167Y014273D01*
X009166Y014372D02*
X010312Y014372D01*
X010312Y014470D02*
X009164Y014470D01*
X009163Y014569D02*
X010313Y014569D01*
X010313Y014667D02*
X009161Y014667D01*
X009160Y014766D02*
X010313Y014766D01*
X010313Y014864D02*
X009159Y014864D01*
X009157Y014963D02*
X010314Y014963D01*
X010314Y015061D02*
X009156Y015061D01*
X009155Y015160D02*
X010314Y015160D01*
X010314Y015259D02*
X009114Y015259D01*
X009064Y015357D02*
X010315Y015357D01*
X010315Y015456D02*
X009014Y015456D01*
X008965Y015554D02*
X010315Y015554D01*
X010316Y015653D02*
X008915Y015653D01*
X008865Y015751D02*
X010316Y015751D01*
X010317Y015850D02*
X008815Y015850D01*
X008765Y015948D02*
X009550Y015948D01*
X009599Y015899D02*
X009731Y015899D01*
X009731Y016499D01*
X009791Y016499D01*
X009791Y016559D01*
X010151Y016559D01*
X010151Y016930D01*
X009922Y017159D01*
X009791Y017159D01*
X009791Y016559D01*
X009731Y016559D01*
X009731Y017159D01*
X009599Y017159D01*
X009371Y016930D01*
X009371Y016559D01*
X009731Y016559D01*
X009731Y016499D01*
X009371Y016499D01*
X009371Y016127D01*
X009599Y015899D01*
X009731Y015948D02*
X009791Y015948D01*
X009791Y015899D02*
X009922Y015899D01*
X010151Y016127D01*
X010151Y016499D01*
X009791Y016499D01*
X009791Y015899D01*
X009791Y016047D02*
X009731Y016047D01*
X009731Y016145D02*
X009791Y016145D01*
X009791Y016244D02*
X009731Y016244D01*
X009731Y016343D02*
X009791Y016343D01*
X009791Y016441D02*
X009731Y016441D01*
X009731Y016540D02*
X008467Y016540D01*
X008417Y016638D02*
X009371Y016638D01*
X009371Y016737D02*
X008367Y016737D01*
X008317Y016835D02*
X009371Y016835D01*
X009374Y016934D02*
X008267Y016934D01*
X008110Y017163D02*
X008198Y017250D01*
X008198Y017558D01*
X007665Y017558D01*
X007665Y017658D01*
X007565Y017658D01*
X007565Y018053D01*
X007120Y018053D01*
X007032Y017965D01*
X007032Y017658D01*
X007565Y017658D01*
X007565Y017558D01*
X007032Y017558D01*
X007032Y017250D01*
X007120Y017163D01*
X007565Y017163D01*
X007565Y017558D01*
X007665Y017558D01*
X007665Y017163D01*
X008110Y017163D01*
X008177Y017229D02*
X010347Y017229D01*
X010345Y017131D02*
X009950Y017131D01*
X010049Y017032D02*
X010343Y017032D01*
X010341Y016934D02*
X010147Y016934D01*
X010151Y016835D02*
X010338Y016835D01*
X010336Y016737D02*
X010151Y016737D01*
X010151Y016638D02*
X010334Y016638D01*
X010332Y016540D02*
X009791Y016540D01*
X009791Y016638D02*
X009731Y016638D01*
X009731Y016737D02*
X009791Y016737D01*
X009791Y016835D02*
X009731Y016835D01*
X009731Y016934D02*
X009791Y016934D01*
X009791Y017032D02*
X009731Y017032D01*
X009731Y017131D02*
X009791Y017131D01*
X009571Y017131D02*
X006162Y017131D01*
X006048Y017032D02*
X009473Y017032D01*
X009870Y017624D02*
X007665Y017624D01*
X007665Y017658D02*
X008198Y017658D01*
X008198Y017965D01*
X008110Y018053D01*
X007665Y018053D01*
X007665Y017658D01*
X007665Y017722D02*
X007565Y017722D01*
X007565Y017624D02*
X006405Y017624D01*
X006372Y017722D02*
X007032Y017722D01*
X007032Y017821D02*
X006329Y017821D01*
X006231Y017919D02*
X007032Y017919D01*
X007085Y018018D02*
X006038Y018018D01*
X006143Y018116D02*
X008840Y018116D01*
X009378Y018018D02*
X008146Y018018D01*
X008198Y017919D02*
X009501Y017919D01*
X009624Y017821D02*
X008198Y017821D01*
X008198Y017722D02*
X009747Y017722D01*
X009993Y017525D02*
X008198Y017525D01*
X008198Y017427D02*
X010116Y017427D01*
X010239Y017328D02*
X008198Y017328D01*
X007665Y017328D02*
X007565Y017328D01*
X007565Y017427D02*
X007665Y017427D01*
X007665Y017525D02*
X007565Y017525D01*
X007565Y017229D02*
X007665Y017229D01*
X007665Y017821D02*
X007565Y017821D01*
X007565Y017919D02*
X007665Y017919D01*
X007665Y018018D02*
X007565Y018018D01*
X007032Y017525D02*
X005980Y017525D01*
X006353Y017328D02*
X007032Y017328D01*
X007032Y017427D02*
X006393Y017427D01*
X006282Y017229D02*
X007053Y017229D01*
X008516Y016441D02*
X009371Y016441D01*
X009371Y016343D02*
X008566Y016343D01*
X008616Y016244D02*
X009371Y016244D01*
X009371Y016145D02*
X008666Y016145D01*
X008716Y016047D02*
X009451Y016047D01*
X009972Y015948D02*
X010319Y015948D01*
X010321Y016047D02*
X010070Y016047D01*
X010151Y016145D02*
X010323Y016145D01*
X010325Y016244D02*
X010151Y016244D01*
X010151Y016343D02*
X010328Y016343D01*
X010330Y016441D02*
X010151Y016441D01*
X009895Y014371D02*
X009761Y014371D01*
X010011Y009149D02*
X010108Y009149D01*
X010108Y009050D02*
X010011Y009050D01*
X010011Y008952D02*
X010108Y008952D01*
X010108Y008853D02*
X010011Y008853D01*
X009319Y008656D02*
X009244Y008656D01*
X009257Y008558D02*
X009331Y008558D01*
X008442Y006285D02*
X008458Y006277D01*
X008442Y006285D02*
X009135Y005974D01*
X006521Y006360D02*
X006485Y006340D01*
D33*
X010544Y010293D02*
X011210Y009722D01*
X011210Y006883D01*
X012249Y006116D01*
X012269Y006123D01*
X007387Y018753D02*
X007032Y018753D01*
X006588Y019612D02*
X006359Y019553D01*
X006158Y019301D01*
X006166Y018812D01*
D34*
X006245Y017612D02*
X007387Y017612D01*
X007769Y017612D02*
X008552Y017596D01*
X009552Y016864D01*
X004631Y017572D02*
X003765Y017572D01*
D35*
X003466Y017549D01*
X004631Y017572D02*
X004942Y017529D01*
X009552Y016864D02*
X009769Y016533D01*
X009761Y016529D01*
X009769Y016088D02*
X009769Y015261D01*
X009761Y014371D01*
X009792Y013494D01*
X009769Y010403D01*
X009777Y008777D01*
X010060Y008753D01*
D36*
X011544Y014230D02*
X011544Y015360D01*
X010851Y016076D01*
X010761Y016529D01*
D37*
X016485Y012293D03*
X017084Y013072D03*
X018257Y009655D03*
M02*
